<svg width="71" height="71" viewBox="0 0 71 71" fill="none" xmlns="http://www.w3.org/2000/svg">
<circle cx="35.5" cy="35.5" r="35.5" fill="#DC3D5A"/>
<path d="M41.5516 22.3252H41.4675C39.1773 22.3522 36.9607 23.1638 35.1658 24.6326C33.1787 22.898 31.2715 22 29.4815 22C26.9487 21.9925 24.5224 23.0495 22.7599 24.9273C20.9893 26.8208 20 29.3498 20 31.9815C20 34.6132 20.9894 37.142 22.7599 39.0355L33.4855 49.7006C33.9371 50.1489 34.5393 50.3994 35.1658 50.3994C35.7923 50.3994 36.3946 50.1489 36.8461 49.7006L47.5259 39.0665L47.5552 39.0362V39.0359C49.3226 37.1409 50.3102 34.6127 50.3102 31.982C50.3102 29.3512 49.3226 26.823 47.5552 24.9277C45.9743 23.2626 43.8104 22.3248 41.5519 22.3257L41.5516 22.3252ZM33.9896 40.9743L28.5743 36.0214L30.5445 33.753L33.9644 36.8799L40.5726 30.4135L42.5935 32.621L33.9896 40.9743Z" fill="white"/>
</svg>
