<svg width="71" height="71" viewBox="0 0 71 71" fill="none" xmlns="http://www.w3.org/2000/svg">
<circle cx="35.5" cy="35.5" r="35.5" fill="#2E48DA"/>
<path d="M35.3643 41.9595C35.3643 42.5585 34.8784 43.0444 34.2793 43.0444C33.6803 43.0444 33.1944 42.5583 33.1944 41.9595C33.1944 41.3599 33.6803 40.8745 34.2793 40.8745C34.8784 40.8745 35.3643 41.3602 35.3643 41.9595ZM53.2333 37.8428L38.0552 22.6653C37.1684 21.7782 35.7302 21.7782 34.8436 22.6653L29.7949 27.7135V24.7169C29.7949 24.4277 29.5605 24.1928 29.2708 24.1928H24.9022C24.6125 24.1928 24.3781 24.4277 24.3781 24.7169V33.1304L19.6653 37.843C18.7782 38.7298 18.7782 40.1675 19.6653 41.0545C20.5523 41.9413 21.9903 41.9413 22.8768 41.0545L24.7593 39.1719V46.4861C24.7593 47.3223 25.437 48 26.2732 48H32.2598L32.26 36.8208C32.26 36.2027 32.7613 35.7015 33.3793 35.7015H39.5189C40.137 35.7015 40.6377 36.2027 40.6377 36.8208V48H46.6243C47.4605 48 48.1384 47.3225 48.1384 46.4861L48.1387 39.1719L50.0211 41.0545C51.027 42.0599 52.4591 41.8282 53.2327 41.0545C54.1197 40.1675 54.1197 38.7295 53.2332 37.8425L53.2333 37.8428Z" fill="white"/>
</svg>
