<svg width="71" height="71" viewBox="0 0 71 71" fill="none" xmlns="http://www.w3.org/2000/svg">
<circle cx="35.5" cy="35.5" r="35.5" fill="#3D90DC"/>
<path fill-rule="evenodd" clip-rule="evenodd" d="M22 29.3059C22 33.1559 22.4278 47.5778 23.0389 51L48.8278 49.4722L48.5833 45.2556L48.1556 44.2778L47.1167 44.3389C45.0389 44.6444 42.0444 45.4389 39.8448 44.8889C38.1337 44.4611 36.4226 42.1389 36.7892 40C37.1559 37.9222 38.9892 36.2722 40.5781 35.6611C43.0226 34.6833 44.7948 34.9889 47.4837 34.8056L46.8726 28.3278C44.4892 28.0833 37.5222 28.8778 34.5889 29.0611C30.3111 29.2444 26.2778 28.9389 22 29.3056V29.3059ZM28.8444 27.5337C30.3722 26.0059 32.3278 23.4392 33.8556 22.4615C35.3222 22.8281 34.4667 23.1948 35.8111 23.0726C37.95 22.9503 36.2389 20.8115 40.8222 24.967C41.1278 25.2726 42.0444 26.1281 42.4722 26.4337C43.5111 27.2281 42.9611 27.167 44.7333 26.8615C44.2444 25.5781 37.7667 19.2837 35.9333 18C34.2222 18.7944 32.7556 21.3 31.35 22.7056C30.25 23.8056 27.8056 26.5556 27.0111 27.0444C26.5222 27.7778 26.3389 26.1278 26.6444 27.9C27.0722 27.9 27.6833 27.9611 28.1111 27.9C28.7222 27.7778 28.6 27.7167 28.8444 27.5333V27.5337ZM30.9222 27.5337C32.6944 27.8392 36.7278 27.5948 38.8059 27.4115L40.2726 27.2281C40.3337 27.167 40.4559 27.167 40.5781 27.1059C40.6392 27.0448 40.7615 27.1059 40.8226 26.9837C40.8837 26.8615 41.0059 26.9226 41.067 26.8615C39.7837 26.067 38.9892 25.2726 38.0115 24.1115C35.3226 24.4781 36.667 24.7226 33.7337 24.1726C32.8781 25.4559 32.0226 26.0059 30.9226 27.5337H30.9222ZM42.0444 40.1833C42.0444 40.1833 42.2278 41.2222 43.2056 40.3667C43.8778 39.6944 43.5111 39.6944 43.45 38.9611C42.2278 39.0222 41.7389 39.0833 42.0444 40.1833ZM44.9167 39.2056C45.2222 42.4444 40.7 42.9944 40.4556 40.2444C40.2111 37.6167 44.6722 36.3333 44.9167 39.2056ZM43.2667 36.3333C37.4611 37.25 37.0944 41.8944 39.6611 43.3C40.8222 43.9111 42.35 43.6667 43.6944 43.4833C46.2611 43.1778 49.0111 42.5667 50.9056 41.5889C51.5778 38.35 51.15 34.1941 48.7667 32.8503C48.7056 38.4726 48.5833 35.5392 43.2667 36.3337V36.3333Z" fill="white"/>
</svg>
