<svg width="71" height="71" viewBox="0 0 71 71" fill="none" xmlns="http://www.w3.org/2000/svg">
<circle cx="35.5" cy="35.5" r="35.5" fill="#F39A59"/>
<path d="M47.8459 21.1525C46.7996 29.3865 40.8329 36.0978 31.345 35.212C32.1476 30.6921 35.8437 29.1324 38.845 26.8634C36.2249 28.3836 30.8367 30.7033 30.273 34.2236C29.6912 37.8533 31.3193 48.5736 39.8842 60.0034H33.3374C28.724 44.0681 29.0152 36.1935 29.5086 32.0123C29.5086 32.0123 29.7383 30.7701 29.9061 30.1956C29.9537 30.0361 30.0068 29.8815 30.06 29.7265C30.0903 29.611 30.1187 29.4948 30.1435 29.3745C30.5378 27.3713 28.1018 25.0552 26.9939 23.7187C28.159 25.5346 29.8358 27.104 29.3692 29.6933C24.0957 28.2878 22.2188 23.4986 23.2887 18.8639C23.5692 17.6489 24.1849 16.4287 24.9696 15.7275C24.4934 17.442 25.8434 18.6673 26.9545 19.7468C27.8994 20.6658 28.815 21.5108 29.5566 22.4505C30.7184 23.926 31.2874 25.5378 31.1243 27.4187C32.1511 25.7243 33.5939 24.3559 35.4153 23.2384C37.1948 22.1477 39.2045 21.3162 41.3092 20.3825C43.7812 19.2854 46.7325 18.0948 46.9879 15C47.8497 16.6217 48.1213 18.9913 47.8457 21.1524L47.8459 21.1525Z" fill="white"/>
</svg>
