<svg width="71" height="71" viewBox="0 0 71 71" fill="none" xmlns="http://www.w3.org/2000/svg">
<circle cx="35.5" cy="35.5" r="35.5" fill="#3DDC97"/>
<path d="M36.3999 16C25.6856 16 17 24.6856 17 35.3999C17 46.1142 25.6856 54.7998 36.3999 54.7998C47.1142 54.7998 55.7998 46.1142 55.7998 35.3999C55.7998 24.6856 47.1142 16 36.3999 16ZM28.7303 26.8279C30.4743 26.8279 31.8883 28.2418 31.8883 29.9859C31.8883 31.73 30.4743 33.1439 28.7303 33.1439C26.9862 33.1439 25.5722 31.73 25.5722 29.9859C25.5722 28.2418 26.9862 26.8279 28.7303 26.8279ZM44.0697 26.8279C45.8138 26.8279 47.2278 28.2418 47.2278 29.9859C47.2278 31.73 45.8138 33.1439 44.0697 33.1439C42.3257 33.1439 40.9117 31.73 40.9117 29.9859C40.9117 28.2418 42.3257 26.8279 44.0697 26.8279ZM23.7675 39.9115H49.0325C47.1902 45.1649 42.2304 48.9347 36.4 48.9347C30.5698 48.9347 25.61 45.1649 23.7675 39.9115Z" fill="white"/>
</svg>
