<svg width="56" height="56" viewBox="0 0 56 56" fill="none" xmlns="http://www.w3.org/2000/svg">
<rect width="56" height="56" rx="22" fill="#703DDC"/>
<path fill-rule="evenodd" clip-rule="evenodd" d="M30.2124 23.7624C30.2124 26.4062 28.0489 28.5248 25.3493 28.5248C22.6507 28.5248 20.4863 26.4062 20.4863 23.7624C20.4863 21.1187 22.6507 19 25.3493 19C28.0489 19 30.2124 21.1187 30.2124 23.7624ZM18 33.9174C18 31.47 21.3855 30.8577 25.3493 30.8577C29.3347 30.8577 32.6987 31.4911 32.6987 33.9404C32.6987 36.3877 29.3131 37 25.3493 37C21.364 37 18 36.3666 18 33.9174ZM32.1734 23.8487C32.1734 25.1951 31.7605 26.4513 31.0364 27.4948C30.9611 27.6021 31.0276 27.7468 31.1587 27.7698C31.3407 27.7995 31.5276 27.8177 31.7184 27.8216C33.6167 27.8704 35.3202 26.6736 35.7908 24.8712C36.4885 22.1968 34.4415 19.7954 31.8339 19.7954C31.5511 19.7954 31.2801 19.8242 31.0159 19.8769C30.9797 19.8845 30.9405 19.9018 30.921 19.9325C30.8955 19.9717 30.9141 20.0225 30.9396 20.0561C31.7233 21.1322 32.1734 22.4421 32.1734 23.8487ZM35.3173 29.7023C36.5932 29.9466 37.4317 30.444 37.7791 31.1694C38.0736 31.7635 38.0736 32.4534 37.7791 33.0475C37.2478 34.1705 35.5335 34.5318 34.8672 34.6247C34.7292 34.6439 34.6186 34.5289 34.6333 34.3928C34.9738 31.2805 32.2664 29.8048 31.5658 29.4656C31.5364 29.4493 31.5296 29.4263 31.5325 29.411C31.5345 29.4014 31.5472 29.3861 31.5697 29.3832C33.0854 29.3545 34.7155 29.5586 35.3173 29.7023Z" fill="white"/>
</svg>
