<svg width="56" height="56" viewBox="0 0 56 56" fill="none" xmlns="http://www.w3.org/2000/svg">
<rect width="56" height="56" rx="22" fill="#2E48DA"/>
<path fill-rule="evenodd" clip-rule="evenodd" d="M26.5967 18.8123C25.8705 18.8123 25.2527 19.3169 25.0793 19.9971H30.9105C30.7371 19.3169 30.1193 18.8123 29.3931 18.8123H26.5967ZM32.558 19.9971H34.7041C36.9802 19.9971 38.8337 21.8731 38.8337 24.1768C38.8337 24.1768 38.7686 25.1521 38.747 26.5102C38.7448 26.6178 38.6928 26.7231 38.6071 26.7867C38.0858 27.1718 37.6089 27.4899 37.5655 27.5118C35.7663 28.7186 33.6755 29.5677 31.4481 29.9901C31.3029 30.0186 31.1598 29.9429 31.0861 29.8134C30.4618 28.7318 29.2956 28.0275 27.9949 28.0275C26.7029 28.0275 25.5258 28.7241 24.8831 29.8069C24.8083 29.9341 24.6674 30.0076 24.5233 29.9802C22.3143 29.5567 20.2235 28.7087 18.4351 27.5228L17.3946 26.7988C17.3079 26.7439 17.2537 26.6452 17.2537 26.5355C17.2212 25.976 17.167 24.1768 17.167 24.1768C17.167 21.8731 19.0204 19.9971 21.2966 19.9971H23.4318C23.6377 18.4064 24.9709 17.1667 26.5967 17.1667H29.3931C31.0189 17.1667 32.3521 18.4064 32.558 19.9971ZM38.4651 28.8833L38.4218 28.9052C36.2324 30.3752 33.5985 31.3516 30.8347 31.7575C30.4445 31.8124 30.0543 31.56 29.9459 31.1651C29.7074 30.2655 28.9379 29.6731 28.0166 29.6731H28.0057H27.9841C27.0628 29.6731 26.2932 30.2655 26.0548 31.1651C25.9464 31.56 25.5562 31.8124 25.166 31.7575C22.4021 31.3516 19.7683 30.3752 17.5789 28.9052C17.568 28.8942 17.4596 28.8284 17.3729 28.8833C17.2754 28.9381 17.2754 29.0698 17.2754 29.0698L17.3513 34.6647C17.3513 36.9684 19.1938 38.8334 21.47 38.8334H34.5198C36.796 38.8334 38.6386 36.9684 38.6386 34.6647L38.7253 29.0698C38.7253 29.0698 38.7253 28.9381 38.6277 28.8833C38.5735 28.8503 38.5085 28.8613 38.4651 28.8833ZM28.8078 33.4799C28.8078 33.9406 28.4501 34.3026 27.9949 34.3026C27.5505 34.3026 27.182 33.9406 27.182 33.4799V32.0647C27.182 31.6149 27.5505 31.2419 27.9949 31.2419C28.4501 31.2419 28.8078 31.6149 28.8078 32.0647V33.4799Z" fill="white"/>
</svg>
