<svg width="56" height="56" viewBox="0 0 56 56" fill="none" xmlns="http://www.w3.org/2000/svg">
<rect width="56" height="56" rx="22" fill="#E78C03"/>
<path fill-rule="evenodd" clip-rule="evenodd" d="M25.8033 31.2526C26.4277 31.6759 27.1888 31.9319 27.9987 31.9319C30.1453 31.9319 31.8919 30.1696 31.8919 28.0037C31.8919 27.1866 31.6382 26.4186 31.2186 25.7885L30.1551 26.8617C30.3307 27.1964 30.4283 27.5902 30.4283 28.0037C30.4283 29.3525 29.3354 30.4551 27.9987 30.4551C27.5889 30.4551 27.1986 30.3567 26.8668 30.1795L25.8033 31.2526ZM34.4288 22.5495C35.8436 23.8491 37.0438 25.6015 37.9415 27.7083C38.0195 27.8954 38.0195 28.112 37.9415 28.2892C35.8534 33.1921 32.1358 36.1259 27.9987 36.1259H27.9889C26.1058 36.1259 24.3006 35.5056 22.7102 34.3735L20.8172 36.2834C20.6709 36.4311 20.4855 36.5 20.3001 36.5C20.1147 36.5 19.9196 36.4311 19.783 36.2834C19.539 36.0373 19.5 35.6435 19.6952 35.358L19.7244 35.3186L34.1556 20.7577C34.1751 20.738 34.1946 20.7183 34.2044 20.6986L34.2044 20.6986C34.2239 20.6789 34.2434 20.6593 34.2532 20.6396L35.1704 19.7141C35.4631 19.4286 35.9217 19.4286 36.2046 19.7141C36.4974 19.9996 36.4974 20.4722 36.2046 20.7577L34.4288 22.5495ZM24.0984 28.0075C24.0984 28.2635 24.1276 28.5195 24.1667 28.7558L20.5564 32.3984C19.5807 31.2564 18.7318 29.8781 18.0585 28.293C17.9805 28.1158 17.9805 27.8992 18.0585 27.7122C20.1466 22.8093 23.8642 19.8853 27.9916 19.8853H28.0013C29.3966 19.8853 30.7529 20.2201 32.0018 20.8502L28.7429 24.1384C28.5087 24.099 28.255 24.0695 28.0013 24.0695C25.8449 24.0695 24.0984 25.8318 24.0984 28.0075Z" fill="white"/>
</svg>
