<svg width="137" height="114" viewBox="0 0 137 114" fill="none" xmlns="http://www.w3.org/2000/svg">
<path d="M-59.3672 6.5424C-35.8232 6.27264 -15.3966 14.3936 1.81513 31.3424C13.4761 42.8215 25.741 53.482 40.4748 60.4773C53.1127 66.4867 66.1858 69.4541 80.1292 66.6169C81.2127 66.3936 83.2287 67.8634 83.8859 69.0913C97.0211 93.5844 116.506 109.966 141.835 118.636C158.923 124.487 176.312 125.231 193.755 120.077C193.755 117.91 193.755 115.733 193.755 113.566C175.548 119.696 157.52 118.198 139.873 111.445C118.593 103.305 101.977 88.9425 90.3159 68.4681C89.5698 67.1657 88.9659 65.7797 88.3176 64.4681C92.4385 61.3332 96.6304 58.7006 100.201 55.3332C108.487 47.5378 112.616 37.6773 111.613 25.9006C111.053 19.3424 108.318 13.8262 101.986 11.5285C95.609 9.2215 90.0317 11.5657 85.3424 16.1889C79.2144 22.2262 77.1806 30.2076 77.1895 38.589C77.1984 45.6401 78.2819 52.682 79.0013 60.9983C74.0278 61.0355 68.486 61.575 63.0507 61.0076C49.578 59.5936 37.7483 53.4448 27.0554 45.175C18.6272 38.6541 10.6874 31.4076 2.82758 24.1424C-14.4818 8.16102 -34.7575 0.691234 -57.6087 0.235415C-58.1949 0.226113 -58.781 0.0958842 -59.3672 0.0214654C-59.3672 2.19821 -59.3672 4.37496 -59.3672 6.5424ZM85.2181 57.9564C84.4543 54.1239 83.4418 50.7099 83.1576 47.2401C82.385 37.8541 82.4294 28.5145 89.0814 20.989C91.9056 17.789 95.4936 15.7703 99.8009 17.2959C104.393 18.9238 105.645 23.0448 105.902 27.6308C106.613 40.1611 98.0869 53.0355 85.2181 57.9564Z" fill="#62E2AA"/>
</svg>
