<svg width="56" height="56" viewBox="0 0 56 56" fill="none" xmlns="http://www.w3.org/2000/svg">
<rect width="56" height="56" rx="22" fill="#E73A03"/>
<path fill-rule="evenodd" clip-rule="evenodd" d="M27.9998 17.4222C24.9823 17.4222 22.088 18.621 19.9546 20.7547C17.8208 22.8885 16.6221 25.7824 16.6221 28.8C16.6221 31.8176 17.8208 34.7117 19.9546 36.8452C22.0883 38.979 24.9822 40.1777 27.9998 40.1777C31.0174 40.1777 33.9116 38.9789 36.0451 36.8452C38.1788 34.7115 39.3775 31.8176 39.3775 28.8C39.3775 26.8028 38.8516 24.8407 37.8531 23.1108C36.8545 21.3812 35.4182 19.9449 33.6886 18.9464C31.9589 17.9478 29.9968 17.4219 27.9994 17.4219L27.9998 17.4222ZM32.878 29.6106H27.1888V21.4826H28.8172V27.9822H32.8776L32.878 29.6106Z" fill="white"/>
</svg>
