<svg width="28" height="28" viewBox="0 0 28 28" fill="none" xmlns="http://www.w3.org/2000/svg">
<rect width="28" height="28" rx="8" fill="#0AAA64"/>
<path fill-rule="evenodd" clip-rule="evenodd" d="M15.9357 9.65797C14.99 9.44734 14.01 9.44734 13.0643 9.65797L12.8665 9.70203C11.5458 9.99619 10.5046 11.0167 10.1786 12.3367C9.94048 13.3005 9.94048 14.3082 10.1786 15.272C10.5046 16.592 11.5458 17.6125 12.8665 17.9067L13.0643 17.9507C14.01 18.1614 14.99 18.1614 15.9357 17.9507L16.1335 17.9067C17.4542 17.6125 18.4954 16.592 18.8214 15.272C19.0595 14.3082 19.0595 13.3005 18.8214 12.3367C18.4954 11.0167 17.4542 9.99619 16.1335 9.70203L15.9357 9.65797ZM17.3153 12.7559C17.4938 12.7253 17.6746 12.7145 17.854 12.7229C18.0511 12.7321 18.2062 12.8873 18.2327 13.0839C18.2972 13.562 18.2972 14.0467 18.2327 14.5248C18.2063 14.7214 18.0511 14.8766 17.854 14.8858C17.6746 14.8942 17.4938 14.8834 17.3153 14.8528L17.2802 14.8468C16.8151 14.7672 16.4557 14.4504 16.3342 14.0511C16.2851 13.8896 16.2851 13.7191 16.3342 13.5576C16.4557 13.1583 16.8151 12.8415 17.2802 12.7619L17.3153 12.7559ZM12.2953 12.3587C12.2953 12.199 12.424 12.0696 12.5829 12.0696L14.5 12.0696C14.6588 12.0696 14.7876 12.199 14.7876 12.3587C14.7876 12.5184 14.6588 12.6478 14.5 12.6478H12.5829C12.424 12.6478 12.2953 12.5184 12.2953 12.3587Z" fill="white"/>
</svg>
