<svg width="28" height="28" viewBox="0 0 28 28" fill="none" xmlns="http://www.w3.org/2000/svg">
<rect width="28" height="28" rx="8" fill="#2E48DA"/>
<path d="M18.3986 13.891C18.5338 13.755 18.5338 13.5344 18.3986 13.3983L15.5332 10.5141C15.24 10.2189 14.9955 9.97282 14.7753 9.8037C14.5429 9.6252 14.2973 9.5 14 9.5C13.7027 9.5 13.4571 9.6252 13.2247 9.8037C13.0045 9.97282 12.76 10.2189 12.4668 10.5141L9.60139 13.3983C9.4662 13.5344 9.4662 13.755 9.60139 13.891C9.73657 14.0271 9.95574 14.0271 10.0909 13.891L10.2892 13.6914V15.2166C10.2892 16.7137 11.313 18.0138 12.761 18.3557C13.5759 18.5481 14.4241 18.5481 15.239 18.3557C16.687 18.0138 17.7108 16.7137 17.7108 15.2166V13.6914L17.9091 13.891C18.0443 14.0271 18.2634 14.0271 18.3986 13.891Z" fill="white"/>
</svg>
