<svg width="28" height="28" viewBox="0 0 28 28" fill="none" xmlns="http://www.w3.org/2000/svg">
<rect width="28" height="28" rx="8" fill="#E73A03"/>
<path d="M12.0956 9.57797C11.6524 9.47401 11.1911 9.47401 10.7479 9.57797C10.1674 9.71414 9.71414 10.1674 9.57797 10.7479C9.47401 11.1911 9.47401 11.6524 9.57797 12.0956C9.71414 12.6761 10.1674 13.1293 10.7479 13.2655C11.1911 13.3695 11.6524 13.3695 12.0956 13.2655C12.6761 13.1293 13.1293 12.6761 13.2655 12.0956C13.3695 11.6524 13.3695 11.1911 13.2655 10.7479C13.1293 10.1674 12.6761 9.71414 12.0956 9.57797Z" fill="white"/>
<path d="M12.0956 14.7345C11.6524 14.6305 11.1911 14.6305 10.7479 14.7345C10.1674 14.8707 9.71414 15.3239 9.57797 15.9044C9.47401 16.3476 9.47401 16.8089 9.57797 17.2521C9.71414 17.8326 10.1674 18.2859 10.7479 18.422C11.1911 18.526 11.6524 18.526 12.0956 18.422C12.6761 18.2859 13.1293 17.8326 13.2655 17.2521C13.3695 16.8089 13.3695 16.3476 13.2655 15.9044C13.1293 15.3239 12.6761 14.8707 12.0956 14.7345Z" fill="white"/>
<path d="M17.2521 9.57797C16.8089 9.47401 16.3476 9.47401 15.9044 9.57797C15.3239 9.71414 14.8707 10.1674 14.7345 10.7479C14.6305 11.1911 14.6305 11.6524 14.7345 12.0956C14.8707 12.6761 15.3239 13.1293 15.9044 13.2655C16.3476 13.3695 16.8089 13.3695 17.2521 13.2655C17.8326 13.1293 18.2859 12.6761 18.422 12.0956C18.526 11.6524 18.526 11.1911 18.422 10.7479C18.2859 10.1674 17.8326 9.71414 17.2521 9.57797Z" fill="white"/>
<path d="M17.2521 14.7345C16.8089 14.6305 16.3476 14.6305 15.9044 14.7345C15.3239 14.8707 14.8707 15.3239 14.7345 15.9044C14.6305 16.3476 14.6305 16.8089 14.7345 17.2521C14.8707 17.8326 15.3239 18.2859 15.9044 18.422C16.3476 18.526 16.8089 18.526 17.2521 18.422C17.8326 18.2859 18.2859 17.8326 18.422 17.2521C18.526 16.8089 18.526 16.3476 18.422 15.9044C18.2859 15.3239 17.8326 14.8707 17.2521 14.7345Z" fill="white"/>
</svg>
