<svg width="28" height="28" viewBox="0 0 28 28" fill="none" xmlns="http://www.w3.org/2000/svg">
<rect width="28" height="28" rx="8" fill="#442AAC"/>
<path fill-rule="evenodd" clip-rule="evenodd" d="M16.1181 16.4522C15.9216 16.4983 15.7231 16.5325 15.5236 16.5549C15.2587 17.4641 14.5238 18.1656 13.5949 18.3835C12.9325 18.5388 12.2432 18.5388 11.5808 18.3835C10.6062 18.1548 9.84515 17.3938 9.61653 16.4192C9.46116 15.7568 9.46116 15.0675 9.61653 14.4051C9.83443 13.4762 10.5359 12.7413 11.4451 12.4764C11.4675 12.2769 11.5017 12.0784 11.5478 11.8819C11.8094 10.7667 12.6801 9.89598 13.7953 9.63439C14.5592 9.4552 15.3542 9.4552 16.1181 9.63439C17.2333 9.89598 18.104 10.7667 18.3656 11.8819C18.5448 12.6458 18.5448 13.4408 18.3656 14.2047C18.104 15.3199 17.2333 16.1906 16.1181 16.4522ZM13.7953 16.4522C14.1129 16.5267 14.4357 16.5702 14.7595 16.5828C14.5202 17.1352 14.0317 17.5511 13.4326 17.6916C12.877 17.8219 12.2987 17.8219 11.7431 17.6916C11.0312 17.5246 10.4754 16.9688 10.3084 16.2569C10.1781 15.7013 10.1781 15.123 10.3084 14.5674C10.4489 13.9683 10.8648 13.4798 11.4172 13.2405C11.4279 13.5156 11.4609 13.79 11.5163 14.0611C11.5261 14.1091 11.5366 14.1569 11.5478 14.2047C11.8094 15.3199 12.6801 16.1906 13.7953 16.4522Z" fill="white"/>
</svg>
