<svg width="28" height="28" viewBox="0 0 28 28" fill="none" xmlns="http://www.w3.org/2000/svg">
<rect width="28" height="28" rx="8" fill="#47BB34"/>
<path fill-rule="evenodd" clip-rule="evenodd" d="M16.568 9.59845C14.9481 8.80052 13.0519 8.80052 11.432 9.59845C10.3926 10.1105 9.6881 11.125 9.56955 12.2838L9.55102 12.4649C9.48864 13.0746 9.48345 13.6889 9.53552 14.2996L9.55291 14.5036C9.58141 14.838 9.59785 15.0309 9.62985 15.2152C9.80359 16.2162 10.3255 17.1223 11.1021 17.7721C11.2451 17.8918 11.4033 18.0022 11.6777 18.1938L11.8188 18.2923C12.1841 18.5473 12.405 18.7016 12.6307 18.8109C13.496 19.2297 14.504 19.2297 15.3693 18.8109C15.5951 18.7016 15.8159 18.5474 16.1812 18.2923L16.3223 18.1938C16.5967 18.0022 16.7549 17.8918 16.8979 17.7721C17.6745 17.1223 18.1964 16.2162 18.3702 15.2152C18.4021 15.0309 18.4186 14.838 18.4471 14.5036L18.4645 14.2996C18.5166 13.6889 18.5114 13.0746 18.449 12.4649L18.4304 12.2838C18.3119 11.125 17.6074 10.1105 16.568 9.59845ZM15.6709 12.7465C15.8227 12.8896 15.8309 13.1298 15.6892 13.2831L13.8892 15.2302C13.8196 15.3055 13.7227 15.349 13.6208 15.3508C13.5188 15.3526 13.4205 15.3125 13.3484 15.2396L12.3198 14.2012C12.1729 14.0529 12.1729 13.8125 12.3198 13.6642C12.4667 13.5159 12.7048 13.5159 12.8516 13.6642L13.605 14.4248L15.1394 12.765C15.2811 12.6117 15.519 12.6034 15.6709 12.7465Z" fill="white"/>
</svg>
