<svg width="145" height="148" viewBox="0 0 145 148" fill="none" xmlns="http://www.w3.org/2000/svg">
<path d="M64.1373 23.323C68.8432 19.4672 69.6934 12.8038 65.9564 8.691C62.6147 5.01324 56.6631 4.71664 52.2735 7.97918C47.9432 11.2022 46.5393 16.7386 48.6353 20.9304C48.7341 21.1282 48.6748 21.405 48.4771 21.5632L39.1245 29.2351C38.3929 29.8283 38.1754 30.8564 38.6697 31.5683C39.2036 32.3394 40.3504 32.4185 41.1216 31.766L50.5335 24.0546C50.7312 23.8964 51.008 23.8766 51.186 24.015C54.7253 26.7635 60.1629 26.6053 64.1373 23.323Z" fill="white"/>
<path fill-rule="evenodd" clip-rule="evenodd" d="M64.1373 23.323C68.8432 19.4672 69.6934 12.8038 65.9564 8.691C62.6147 5.01324 56.6631 4.71664 52.2735 7.97918C47.9432 11.2022 46.5393 16.7386 48.6353 20.9304C48.7341 21.1282 48.6748 21.405 48.4771 21.5632L39.1245 29.2351C38.3929 29.8283 38.1754 30.8564 38.6697 31.5683C39.2036 32.3394 40.3504 32.4185 41.1216 31.766L50.5335 24.0546C50.7312 23.8964 51.008 23.8766 51.186 24.015C54.7253 26.7635 60.1629 26.6053 64.1373 23.323Z" stroke="black" stroke-width="0.5" stroke-linecap="round" stroke-linejoin="round"/>
<path d="M62.2387 21.0109C59.075 23.6011 54.6261 23.3836 52.2731 20.5165C49.9202 17.6495 50.5727 13.2401 53.7363 10.6498C56.9 8.05958 61.3489 8.27708 63.7019 11.1442C66.0549 14.0112 65.4024 18.4206 62.2387 21.0109Z" fill="white"/>
<path d="M62.2421 21.0114C65.3995 18.4208 66.0556 14.0006 63.7075 11.1386C61.3593 8.27661 56.8961 8.0566 53.7386 10.6472C50.5811 13.2378 49.925 17.658 52.2732 20.52C54.6214 23.382 59.0846 23.602 62.2421 21.0114Z" stroke="black" stroke-width="0.5" stroke-linecap="round" stroke-linejoin="round"/>
<path d="M56.3066 11.3403C56.4846 11.2612 56.6626 11.2019 56.8603 11.1426" stroke="black" stroke-width="0.5" stroke-linecap="round" stroke-linejoin="round"/>
<path d="M53.1035 15.0387C53.3803 13.9709 54.0131 12.9427 54.9622 12.1716C55.1006 12.0727 55.2192 11.9541 55.3576 11.875" stroke="black" stroke-width="0.5" stroke-linecap="round" stroke-linejoin="round"/>
<path d="M65.1646 24.3523C69.8706 20.4965 70.7208 13.8331 66.9837 9.7203C63.6421 6.04254 57.6904 5.74594 53.3008 9.00847C48.9706 12.2315 47.5667 17.7679 49.6626 21.9597C49.7615 22.1575 49.7022 22.4343 49.5044 22.5925L40.1518 30.2644C39.4202 30.8575 39.2027 31.8857 39.6971 32.5976C40.2309 33.3687 41.3778 33.4478 42.1489 32.7953L51.5608 25.0839C51.7586 24.9257 52.0354 24.9059 52.2133 25.0443C55.7527 27.7927 61.1705 27.6148 65.1646 24.3523Z" fill="white"/>
<path fill-rule="evenodd" clip-rule="evenodd" d="M65.1646 24.3523C69.8706 20.4965 70.7208 13.8331 66.9837 9.7203C63.6421 6.04254 57.6904 5.74594 53.3008 9.00847C48.9706 12.2315 47.5667 17.7679 49.6626 21.9597C49.7615 22.1575 49.7022 22.4343 49.5044 22.5925L40.1518 30.2644C39.4202 30.8575 39.2027 31.8857 39.6971 32.5976C40.2309 33.3687 41.3778 33.4478 42.1489 32.7953L51.5608 25.0839C51.7586 24.9257 52.0354 24.9059 52.2133 25.0443C55.7527 27.7927 61.1705 27.6148 65.1646 24.3523Z" stroke="black" stroke-width="0.5" stroke-linecap="round" stroke-linejoin="round"/>
<path d="M63.2465 22.0187C60.0828 24.6089 55.6339 24.3914 53.2809 21.5243C50.928 18.6573 51.5805 14.2479 54.7441 11.6576C57.9078 9.06739 62.3567 9.28489 64.7097 12.152C67.0627 15.019 66.4102 19.4482 63.2465 22.0187Z" fill="white"/>
<path d="M63.2479 22.027C66.4054 19.4364 67.0615 15.0162 64.7133 12.1542C62.3652 9.29224 57.902 9.07223 54.7445 11.6628C51.587 14.2534 50.9309 18.6736 53.2791 21.5356C55.6272 24.3976 60.0904 24.6176 63.2479 22.027Z" stroke="black" stroke-width="0.5" stroke-linecap="round" stroke-linejoin="round"/>
<path d="M57.3359 12.3501C57.5139 12.271 57.6919 12.2117 57.8896 12.1523" stroke="black" stroke-width="0.5" stroke-linecap="round" stroke-linejoin="round"/>
<path d="M54.1318 16.0484C54.4087 14.9807 55.0414 13.9525 55.9905 13.1814C56.1289 13.0825 56.2475 12.9639 56.3859 12.8848" stroke="black" stroke-width="0.5" stroke-linecap="round" stroke-linejoin="round"/>
<path d="M89.8221 46.9123C92.5508 44.6186 94.2908 41.1781 94.2908 37.3422C94.2908 30.4414 88.6951 24.8457 81.7943 24.8457C79.9554 24.8457 78.1957 25.2412 76.6138 25.9728C72.3033 27.9303 69.2979 32.3001 69.2979 37.3422C69.2979 42.4238 72.3429 46.7937 76.6929 48.7512L75.3681 60.8127L93.0846 60.3777L89.8221 46.9123Z" fill="white"/>
<path fill-rule="evenodd" clip-rule="evenodd" d="M89.8221 46.9123C92.5508 44.6186 94.2908 41.1781 94.2908 37.3422C94.2908 30.4414 88.6951 24.8457 81.7943 24.8457C79.9554 24.8457 78.1957 25.2412 76.6138 25.9728C72.3033 27.9303 69.2979 32.3001 69.2979 37.3422C69.2979 42.4238 72.3429 46.7937 76.6929 48.7512L75.3681 60.8127L93.0846 60.3777L89.8221 46.9123Z" stroke="black" stroke-width="0.5" stroke-linecap="round" stroke-linejoin="round"/>
<path d="M94.2903 37.3229C94.2903 41.1786 92.5503 44.6191 89.8217 46.893C85.1157 48.2771 80.7064 45.2321 81.1414 42.1277C81.5764 39.0234 77.345 36.097 77.345 36.097C77.345 36.097 74.6558 33.9813 74.557 31.0944C74.4581 28.2076 76.6331 25.9337 76.6331 25.9337C78.215 25.2219 79.955 24.8066 81.8136 24.8066C88.6946 24.8462 94.2903 30.4419 94.2903 37.3229Z" fill="black"/>
<path fill-rule="evenodd" clip-rule="evenodd" d="M94.2903 37.3229C94.2903 41.1786 92.5503 44.6191 89.8217 46.893C85.1157 48.2771 80.7064 45.2321 81.1414 42.1277C81.5764 39.0234 77.345 36.097 77.345 36.097C77.345 36.097 74.6558 33.9813 74.557 31.0944C74.4581 28.2076 76.6331 25.9337 76.6331 25.9337C78.215 25.2219 79.955 24.8066 81.8136 24.8066C88.6946 24.8462 94.2903 30.4419 94.2903 37.3229Z" stroke="black" stroke-width="0.5" stroke-linecap="round" stroke-linejoin="round"/>
<path d="M77.2061 36.2554C77.9772 34.9701 79.2822 34.377 80.6663 34.377C82.9006 34.377 84.522 36.6113 84.2452 38.8654C84.0079 40.724 82.5843 42.6618 80.8047 43.1956" fill="white"/>
<path d="M77.2061 36.2554C77.9772 34.9701 79.2822 34.377 80.6663 34.377C82.9006 34.377 84.522 36.6113 84.2452 38.8654C84.0079 40.724 82.5843 42.6618 80.8047 43.1956" stroke="black" stroke-width="0.5" stroke-linecap="round" stroke-linejoin="round"/>
<path d="M81.7945 49.818C78.9669 52.9025 76.2383 52.8432 76.2383 52.8432L76.6931 48.7305C78.2551 49.4423 79.9753 49.818 81.7945 49.818Z" fill="black"/>
<path fill-rule="evenodd" clip-rule="evenodd" d="M81.7945 49.818C78.9669 52.9025 76.2383 52.8432 76.2383 52.8432L76.6931 48.7305C78.2551 49.4423 79.9753 49.818 81.7945 49.818Z" stroke="black" stroke-width="0.5" stroke-linecap="round" stroke-linejoin="round"/>
<path d="M51.8589 118.054C51.8589 121.218 49.2884 123.789 46.1248 123.789C42.9611 123.789 40.3906 121.218 40.3906 118.054C40.3906 114.891 42.9611 112.32 46.1248 112.32C49.3082 112.34 51.8589 114.891 51.8589 118.054Z" fill="black"/>
<path d="M113.511 38.7852C113.511 40.6439 112.008 42.1466 110.149 42.1466C108.291 42.1466 106.788 40.6439 106.788 38.7852C106.788 36.9266 108.291 35.4238 110.149 35.4238C112.008 35.4238 113.511 36.9266 113.511 38.7852Z" fill="black"/>
<path d="M24.5322 43.5117C24.5322 43.5117 27.34 39.4978 28.3682 35.6816C29.3964 31.8655 29.5941 28.8204 33.3707 27.3572C37.958 25.5975 40.1331 24.4704 42.3476 23.1654C44.2854 22.0186 47.1525 21.7813 47.1922 22.592C47.2315 23.4027 40.4494 30.3034 40.1924 31.7666C40.1924 31.7666 44.4436 28.3063 46.5988 28.9391C46.8559 29.0182 46.9547 29.3345 46.7768 29.5323C45.9858 30.4023 43.969 32.6959 42.921 34.3173C41.5963 36.3539 38.0965 38.3905 36.0796 39.1617C34.5176 39.7549 33.1137 43.3535 32.2239 47.5454C31.2946 51.7373 24.5322 43.5117 24.5322 43.5117Z" fill="white"/>
<path fill-rule="evenodd" clip-rule="evenodd" d="M24.5322 43.5117C24.5322 43.5117 27.34 39.4978 28.3682 35.6816C29.3964 31.8655 29.5941 28.8204 33.3707 27.3572C37.958 25.5975 40.1331 24.4704 42.3476 23.1654C44.2854 22.0186 47.1524 21.7813 47.1922 22.592C47.2315 23.4027 40.4494 30.3034 40.1924 31.7666C40.1924 31.7666 44.4436 28.3063 46.5988 28.9391C46.8559 29.0182 46.9547 29.3345 46.7768 29.5323C45.9858 30.4023 43.969 32.6959 42.921 34.3173C41.5963 36.3539 38.0965 38.3905 36.0796 39.1617C34.5176 39.7549 33.1137 43.3535 32.2239 47.5454C31.2946 51.7373 24.5322 43.5117 24.5322 43.5117Z" stroke="black" stroke-width="0.5" stroke-linecap="round" stroke-linejoin="round"/>
<path d="M23.7405 34.1191L43.1971 46.1213C43.1971 46.1213 40.9232 52.0927 39.46 57.0755C37.8386 62.5526 38.5109 74.8118 52.7474 71.6679C62.1791 69.5918 72.8763 50.768 93.0447 54.1689C110.583 57.1151 118.453 79.8539 119.817 95.4548C121.379 113.507 115.606 130.69 101.072 138.975C92.2735 143.978 76.8111 144.65 72.8169 144.749C72.3226 144.768 71.9272 144.314 71.9865 143.819C72.6983 138.698 75.4863 113.784 64.1762 99.2907C64.1762 99.2907 35.9009 100.932 22.8705 83.6503C9.30631 65.6965 23.7405 34.1191 23.7405 34.1191Z" fill="#8A99EA"/>
<path fill-rule="evenodd" clip-rule="evenodd" d="M23.7405 34.1191L43.1971 46.1213C43.1971 46.1213 40.9232 52.0927 39.46 57.0755C37.8386 62.5526 38.5109 74.8118 52.7474 71.6679C62.1791 69.5918 72.8763 50.768 93.0447 54.1689C110.583 57.1151 118.453 79.8539 119.817 95.4548C121.379 113.507 115.606 130.69 101.072 138.975C92.2735 143.978 76.8111 144.65 72.8169 144.749C72.3226 144.768 71.9272 144.314 71.9865 143.819C72.6983 138.698 75.4863 113.784 64.1762 99.2907C64.1762 99.2907 35.9009 100.932 22.8705 83.6503C9.30631 65.6965 23.7405 34.1191 23.7405 34.1191Z" stroke="black" stroke-width="0.5" stroke-linecap="round" stroke-linejoin="round"/>
<path d="M43.9482 22.4746C43.9482 22.4746 42.1686 23.3644 40.8043 25.1044C39.7365 26.4687 39.4004 26.8444 39.4004 26.8444" fill="white"/>
<path d="M43.9482 22.4746C43.9482 22.4746 42.1686 23.3644 40.8043 25.1044C39.7365 26.4687 39.4004 26.8444 39.4004 26.8444" stroke="black" stroke-width="0.5" stroke-linecap="round" stroke-linejoin="round"/>
<path d="M38.9268 25.0254L35.7236 27.24" stroke="black" stroke-width="0.5" stroke-linecap="round" stroke-linejoin="round"/>
<path d="M21.5654 23.5618C23.8591 21.6439 25.8364 23.9771 28.13 22.0591C30.4237 20.1411 28.4662 17.7881 30.7598 15.8504C33.0535 13.9324 35.0308 16.2656 37.3244 14.3477" stroke="black" stroke-width="0.5" stroke-linecap="round" stroke-linejoin="round"/>
<path d="M20.9525 101.764C22.218 104.492 19.43 105.778 20.6954 108.486C21.9609 111.215 24.7291 109.93 25.9946 112.639C27.2601 115.367 24.4721 116.653 25.7375 119.362" stroke="black" stroke-width="0.5" stroke-linecap="round" stroke-linejoin="round"/>
<path d="M125.532 48.7305C125.73 51.7162 122.685 51.9337 122.882 54.9194C123.08 57.9051 126.145 57.7074 126.343 60.6931C126.54 63.6788 123.495 63.8963 123.693 66.882" stroke="black" stroke-width="0.5" stroke-linecap="round" stroke-linejoin="round"/>
<path d="M126.916 80.9043C129.605 82.2093 128.28 84.9775 130.969 86.2825C133.659 87.5876 135.003 84.8391 137.712 86.1441C140.401 87.4491 139.076 90.2174 141.765 91.5224" stroke="black" stroke-width="0.5" stroke-linecap="round" stroke-linejoin="round"/>
<path d="M126.719 127.329C129.349 125.886 130.812 128.575 133.461 127.151C136.091 125.708 134.628 123.019 137.258 121.595C139.888 120.151 141.351 122.841 144 121.417" stroke="black" stroke-width="0.5" stroke-linecap="round" stroke-linejoin="round"/>
<path d="M1.59508 64.0156C2.86054 66.7443 0.0725622 68.0295 1.33803 70.7384C2.60349 73.4671 5.3717 72.1819 6.63716 74.8907C7.90263 77.6194 5.11465 78.9047 6.38012 81.6136" stroke="black" stroke-width="0.5" stroke-linecap="round" stroke-linejoin="round"/>
<path d="M34.9727 131.086C37.6025 132.51 36.159 135.199 38.7888 136.642C41.4186 138.066 42.8818 135.377 45.5314 136.8C48.1612 138.224 46.7178 140.913 49.3476 142.356" stroke="black" stroke-width="0.5" stroke-linecap="round" stroke-linejoin="round"/>
<path d="M62.2183 108.268C61.8031 111.234 58.7778 110.818 58.3428 113.784C57.9276 116.75 60.9528 117.185 60.5376 120.151C60.1224 123.117 57.0971 122.702 56.6621 125.668" stroke="black" stroke-width="0.5" stroke-linecap="round" stroke-linejoin="round"/>
<path d="M102.852 23.6602C105.778 24.3522 105.066 27.3379 107.973 28.03C110.899 28.722 111.591 25.7561 114.518 26.4481C117.444 27.1402 116.732 30.1259 119.639 30.818" stroke="black" stroke-width="0.5" stroke-linecap="round" stroke-linejoin="round"/>
<path d="M85.016 1C86.2814 3.72866 83.4935 5.0139 84.7589 7.72279C86.0244 10.4515 88.7926 9.16622 90.0581 11.8751C91.3235 14.6038 88.5356 15.889 89.801 18.5979" stroke="black" stroke-width="0.5" stroke-linecap="round" stroke-linejoin="round"/>
<path d="M47.7451 49.3658C50.6517 48.654 51.3833 51.6397 54.29 50.9279C57.2164 50.2161 56.4848 47.2501 59.4112 46.5383C62.3376 45.8265 63.0494 48.8122 65.956 48.1004" stroke="black" stroke-width="0.5" stroke-linecap="round" stroke-linejoin="round"/>
<path fill-rule="evenodd" clip-rule="evenodd" d="M42.7629 6.73399C42.7629 7.32718 42.2686 7.8215 41.6754 7.8215C41.0822 7.8215 40.5879 7.32718 40.5879 6.73399C40.5879 6.14081 41.0822 5.64648 41.6754 5.64648C42.2686 5.64648 42.7629 6.14081 42.7629 6.73399Z" stroke="black" stroke-width="0.5" stroke-linecap="round" stroke-linejoin="round"/>
<path d="M37.7473 104.791C38.3022 104.561 38.5657 103.925 38.3358 103.37C38.106 102.815 37.4698 102.551 36.9149 102.781C36.36 103.011 36.0965 103.647 36.3263 104.202C36.5562 104.757 37.1924 105.02 37.7473 104.791Z" stroke="black" stroke-width="0.5" stroke-linecap="round" stroke-linejoin="round"/>
<path d="M113.938 57.0757C114.493 56.8459 114.756 56.2097 114.526 55.6548C114.296 55.0999 113.66 54.8364 113.105 55.0662C112.55 55.2961 112.287 55.9323 112.517 56.4872C112.747 57.0421 113.383 57.3056 113.938 57.0757Z" stroke="black" stroke-width="0.5" stroke-linecap="round" stroke-linejoin="round"/>
<path fill-rule="evenodd" clip-rule="evenodd" d="M138.878 70.441C138.878 71.0342 138.384 71.5285 137.791 71.5285C137.197 71.5285 136.703 71.0342 136.703 70.441C136.703 69.8478 137.197 69.3535 137.791 69.3535C138.404 69.3535 138.878 69.8478 138.878 70.441Z" stroke="black" stroke-width="0.5" stroke-linecap="round" stroke-linejoin="round"/>
<path fill-rule="evenodd" clip-rule="evenodd" d="M134.331 107.181C134.331 107.774 133.837 108.269 133.244 108.269C132.651 108.269 132.156 107.774 132.156 107.181C132.156 106.588 132.651 106.094 133.244 106.094C133.837 106.094 134.331 106.568 134.331 107.181Z" stroke="black" stroke-width="0.5" stroke-linecap="round" stroke-linejoin="round"/>
<path d="M118.08 147.102C118.677 147.043 119.114 146.51 119.055 145.913C118.996 145.315 118.463 144.879 117.865 144.938C117.268 144.997 116.831 145.529 116.89 146.127C116.95 146.725 117.482 147.161 118.08 147.102Z" stroke="black" stroke-width="0.5" stroke-linecap="round" stroke-linejoin="round"/>
<path fill-rule="evenodd" clip-rule="evenodd" d="M107.895 7.72228C107.895 8.31547 107.4 8.8098 106.807 8.8098C106.214 8.8098 105.72 8.31547 105.72 7.72228C105.72 7.12909 106.214 6.63477 106.807 6.63477C107.4 6.63477 107.895 7.12909 107.895 7.72228Z" stroke="black" stroke-width="0.5" stroke-linecap="round" stroke-linejoin="round"/>
<path fill-rule="evenodd" clip-rule="evenodd" d="M137.791 34.357C137.791 34.9502 137.297 35.4445 136.704 35.4445C136.111 35.4445 135.616 34.9502 135.616 34.357C135.616 33.7638 136.111 33.2695 136.704 33.2695C137.297 33.2695 137.791 33.7638 137.791 34.357Z" stroke="black" stroke-width="0.5" stroke-linecap="round" stroke-linejoin="round"/>
<path d="M20.0475 135.098C20.6452 135.039 21.0817 134.507 21.0225 133.909C20.9633 133.311 20.4308 132.875 19.8332 132.934C19.2355 132.993 18.799 133.526 18.8581 134.123C18.9173 134.721 19.4498 135.157 20.0475 135.098Z" stroke="black" stroke-width="0.5" stroke-linecap="round" stroke-linejoin="round"/>
<path fill-rule="evenodd" clip-rule="evenodd" d="M6.97288 101.763C6.97288 102.356 6.47856 102.851 5.88537 102.851C5.29218 102.851 4.79785 102.356 4.79785 101.763C4.79785 101.17 5.29218 100.676 5.88537 100.676C6.49833 100.676 6.97288 101.17 6.97288 101.763Z" stroke="black" stroke-width="0.5" stroke-linecap="round" stroke-linejoin="round"/>
<path d="M8.50315 44.2027C9.05806 43.9728 9.32156 43.3367 9.09171 42.7817C8.86185 42.2268 8.22568 41.9633 7.67077 42.1932C7.11586 42.423 6.85235 43.0592 7.08221 43.6141C7.31206 44.169 7.94824 44.4325 8.50315 44.2027Z" stroke="black" stroke-width="0.5" stroke-linecap="round" stroke-linejoin="round"/>
<path d="M62.9723 135.616C63.5699 135.557 64.0065 135.024 63.9473 134.426C63.8881 133.829 63.3556 133.392 62.7579 133.451C62.1603 133.511 61.7238 134.043 61.7829 134.641C61.8421 135.238 62.3746 135.675 62.9723 135.616Z" stroke="black" stroke-width="0.5" stroke-linecap="round" stroke-linejoin="round"/>
<path d="M79.4504 13.357C80.0054 13.1271 80.2689 12.491 80.039 11.936C79.8091 11.3811 79.173 11.1176 78.618 11.3475C78.0631 11.5773 77.7996 12.2135 78.0295 12.7684C78.2593 13.3233 78.8955 13.5868 79.4504 13.357Z" stroke="black" stroke-width="0.5" stroke-linecap="round" stroke-linejoin="round"/>
<path fill-rule="evenodd" clip-rule="evenodd" d="M52.0159 61.3844C52.0159 61.9776 51.5215 62.4719 50.9283 62.4719C50.3351 62.4719 49.8408 61.9776 49.8408 61.3844C49.8408 60.7912 50.3351 60.2969 50.9283 60.2969C51.5215 60.2969 52.0159 60.7714 52.0159 61.3844Z" stroke="black" stroke-width="0.5" stroke-linecap="round" stroke-linejoin="round"/>
<path fill-rule="evenodd" clip-rule="evenodd" d="M56.8606 37.1428C56.8606 37.736 56.3662 38.2303 55.7731 38.2303C55.1799 38.2303 54.6855 37.736 54.6855 37.1428C54.6855 36.5496 55.1799 36.0553 55.7731 36.0553C56.3662 36.0355 56.8606 36.5298 56.8606 37.1428Z" stroke="black" stroke-width="0.5" stroke-linecap="round" stroke-linejoin="round"/>
</svg>
