<svg width="44" height="44" viewBox="0 0 44 44" fill="none" xmlns="http://www.w3.org/2000/svg">
<path d="M22 0C17.6488 0 13.3953 1.29028 9.77746 3.70767C6.15958 6.12506 3.33979 9.56099 1.67466 13.581C0.00953233 17.6009 -0.426141 22.0244 0.422734 26.292C1.27161 30.5596 3.36691 34.4796 6.44366 37.5564C9.52042 40.6331 13.4404 42.7284 17.708 43.5773C21.9756 44.4261 26.3991 43.9905 30.419 42.3253C34.439 40.6602 37.875 37.8404 40.2923 34.2225C42.7097 30.6047 44 26.3512 44 22C43.9931 16.1673 41.6731 10.5756 37.5488 6.45125C33.4244 2.32694 27.8327 0.00688094 22 0ZM32 24H24V32C24 32.5304 23.7893 33.0391 23.4142 33.4142C23.0392 33.7893 22.5304 34 22 34C21.4696 34 20.9609 33.7893 20.5858 33.4142C20.2107 33.0391 20 32.5304 20 32V24H12C11.4696 24 10.9609 23.7893 10.5858 23.4142C10.2107 23.0391 10 22.5304 10 22C10 21.4696 10.2107 20.9609 10.5858 20.5858C10.9609 20.2107 11.4696 20 12 20H20V12C20 11.4696 20.2107 10.9609 20.5858 10.5858C20.9609 10.2107 21.4696 10 22 10C22.5304 10 23.0392 10.2107 23.4142 10.5858C23.7893 10.9609 24 11.4696 24 12V20H32C32.5304 20 33.0392 20.2107 33.4142 20.5858C33.7893 20.9609 34 21.4696 34 22C34 22.5304 33.7893 23.0391 33.4142 23.4142C33.0392 23.7893 32.5304 24 32 24Z" fill="url(#paint0_linear_5821_14323)"/>
<defs>
<linearGradient id="paint0_linear_5821_14323" x1="-7.64599" y1="45.806" x2="41.944" y2="5.98399" gradientUnits="userSpaceOnUse">
<stop stop-color="#1BA0DB"/>
<stop offset="1" stop-color="#57BF99"/>
</linearGradient>
</defs>
</svg>
