<svg width="183" height="20" viewBox="0 0 183 20" fill="none" xmlns="http://www.w3.org/2000/svg">
<path d="M19.451 18H1.88235C0.815686 18 0 17.2 0 16.1538V3.84615C0 2.8 0.815686 2 1.88235 2H19.451C20.5176 2 21.3333 2.8 21.3333 3.84615V16.1538C21.3333 17.2 20.5176 18 19.451 18ZM1.88235 3.23077C1.50588 3.23077 1.2549 3.47692 1.2549 3.84615V16.1538C1.2549 16.5231 1.50588 16.7692 1.88235 16.7692H19.451C19.8275 16.7692 20.0784 16.5231 20.0784 16.1538V3.84615C20.0784 3.47692 19.8275 3.23077 19.451 3.23077H1.88235Z" fill="#2A3362"/>
<path d="M0.62793 4.46143H20.7064V8.15373H0.62793V4.46143ZM2.51028 10.6153H3.13773V11.846H2.51028V10.6153ZM3.76518 10.6153H4.39264V11.846H3.76518V10.6153ZM5.02009 10.6153H5.64754V11.846H5.02009V10.6153ZM6.90244 10.6153H7.52989V11.846H6.90244V10.6153ZM8.15734 10.6153H8.78479V11.846H8.15734V10.6153ZM9.41224 10.6153H10.0397V11.846H9.41224V10.6153ZM11.2946 10.6153H11.922V11.846H11.2946V10.6153ZM12.5495 10.6153H13.1769V11.846H12.5495V10.6153ZM13.8044 10.6153H14.4319V11.846H13.8044V10.6153ZM15.6868 10.6153H16.3142V11.846H15.6868V10.6153ZM16.9417 10.6153H17.5691V11.846H16.9417V10.6153ZM18.1966 10.6153H18.824V11.846H18.1966V10.6153Z" fill="#2A3362"/>
<path d="M35.4893 3.71094C36.5674 3.71094 37.4346 4.0625 38.0908 4.76562C38.7471 5.46354 39.0752 6.32812 39.0752 7.35938C39.0752 8.40625 38.7497 9.26823 38.0986 9.94531C37.4476 10.6172 36.5778 10.9531 35.4893 10.9531H33.1377V15H30.7939V3.71094H35.4893ZM35.0986 8.99219C35.6715 8.99219 36.1012 8.84635 36.3877 8.55469C36.6742 8.25781 36.8174 7.84896 36.8174 7.32812C36.8174 6.82292 36.6715 6.42188 36.3799 6.125C36.0934 5.82292 35.6663 5.67188 35.0986 5.67188H33.1377V8.99219H35.0986ZM47.0518 12.8203C47.0518 13.6745 47.1169 14.3281 47.2471 14.7812V15H45.1455L44.9658 14.125C44.6794 14.4688 44.3044 14.7266 43.8408 14.8984C43.3773 15.0703 42.8929 15.1562 42.3877 15.1562C42.1221 15.1562 41.8721 15.1328 41.6377 15.0859C41.4033 15.0391 41.1768 14.9609 40.958 14.8516C40.7445 14.737 40.5596 14.5964 40.4033 14.4297C40.2471 14.263 40.1221 14.0521 40.0283 13.7969C39.9346 13.5365 39.8877 13.2448 39.8877 12.9219C39.8877 12.599 39.9372 12.3099 40.0361 12.0547C40.1351 11.7943 40.2653 11.5755 40.4268 11.3984C40.5882 11.2214 40.7992 11.0625 41.0596 10.9219C41.32 10.7812 41.5856 10.6667 41.8564 10.5781C42.1273 10.4896 42.445 10.4062 42.8096 10.3281L44.1299 10.0312C44.4111 9.96354 44.609 9.88021 44.7236 9.78125C44.8434 9.67708 44.9033 9.54167 44.9033 9.375C44.9033 9.01562 44.7705 8.75781 44.5049 8.60156C44.2445 8.44531 43.9268 8.36719 43.5518 8.36719C42.6299 8.36719 42.1064 8.77604 41.9814 9.59375L39.9893 9.23438C40.1559 8.40625 40.5439 7.79688 41.1533 7.40625C41.7627 7.01042 42.6038 6.8125 43.6768 6.8125C45.9268 6.8125 47.0518 7.77865 47.0518 9.71094V12.8203ZM43.0908 13.6328C43.6585 13.6328 44.1221 13.4401 44.4814 13.0547C44.8408 12.6641 45.0205 12.0885 45.0205 11.3281L43.1143 11.8672C42.7653 11.9505 42.4971 12.0599 42.3096 12.1953C42.1273 12.3307 42.0361 12.5234 42.0361 12.7734C42.0361 13.0495 42.1351 13.263 42.333 13.4141C42.5309 13.5599 42.7835 13.6328 43.0908 13.6328ZM54.3486 6.96875H56.6533L51.7002 18.7812H49.4189L51.2549 14.6719L47.9502 6.96875H50.4033L52.3174 12.25L54.3486 6.96875ZM72.1064 6.96875H74.4346L71.6221 15.0078H69.5361L67.6768 9.70312L65.8018 15.0078H63.6846L60.9268 6.96875H63.2471L64.9033 12.1953L66.8018 6.96875H68.5283L70.4189 12.1797L72.1064 6.96875ZM76.833 5.76562C76.4736 5.76562 76.1663 5.64062 75.9111 5.39062C75.6559 5.13542 75.5283 4.82812 75.5283 4.46875C75.5283 4.11458 75.6559 3.8125 75.9111 3.5625C76.1715 3.30729 76.4788 3.17969 76.833 3.17969C77.182 3.17969 77.484 3.30729 77.7393 3.5625C77.9945 3.8125 78.1221 4.11458 78.1221 4.46875C78.1221 4.82812 77.9945 5.13542 77.7393 5.39062C77.484 5.64062 77.182 5.76562 76.833 5.76562ZM75.6846 15V6.96875H77.9502V15H75.6846ZM83.2705 15C82.4893 15 81.8851 14.7839 81.458 14.3516C81.0309 13.9141 80.8174 13.2943 80.8174 12.4922V8.69531H79.2393V6.96875H79.7471C80.2002 6.96875 80.5335 6.85677 80.7471 6.63281C80.9606 6.40885 81.0674 6.01042 81.0674 5.4375V4.375H83.0986V6.96875H84.7549V8.69531H83.0986V12.25C83.0986 12.9427 83.4085 13.2891 84.0283 13.2891H84.7549V15H83.2705ZM91.3564 6.8125C92.2679 6.8125 92.9736 7.06771 93.4736 7.57812C93.9788 8.08333 94.2314 8.83073 94.2314 9.82031V15H91.9736V10.1875C91.9736 9.63542 91.8408 9.23698 91.5752 8.99219C91.3096 8.74219 90.9554 8.61719 90.5127 8.61719C90.2887 8.61719 90.0778 8.64844 89.8799 8.71094C89.6872 8.77344 89.5023 8.875 89.3252 9.01562C89.1481 9.15104 89.0075 9.35156 88.9033 9.61719C88.8044 9.88281 88.7523 10.2005 88.7471 10.5703V15H86.4971V3H88.7471V7.92969C89.3564 7.1849 90.2262 6.8125 91.3564 6.8125ZM103.388 15.1562C102.45 15.1562 101.669 14.9688 101.044 14.5938C100.419 14.2188 100.036 13.6615 99.8955 12.9219L101.778 12.3906C102.002 13.1875 102.539 13.5859 103.388 13.5859C103.716 13.5859 103.989 13.526 104.208 13.4062C104.427 13.2812 104.534 13.0729 104.528 12.7812C104.528 12.6198 104.484 12.4818 104.396 12.3672C104.307 12.2526 104.169 12.1536 103.981 12.0703C103.799 11.987 103.617 11.9167 103.435 11.8594C103.257 11.8021 103.021 11.7344 102.724 11.6562C102.427 11.5729 102.179 11.4948 101.981 11.4219C101.711 11.3281 101.474 11.2292 101.271 11.125C101.073 11.0156 100.877 10.8776 100.685 10.7109C100.497 10.5391 100.351 10.3281 100.247 10.0781C100.148 9.82812 100.099 9.54167 100.099 9.21875C100.099 8.42708 100.388 7.82812 100.966 7.42188C101.549 7.01562 102.31 6.8125 103.247 6.8125C104.08 6.8125 104.781 6.98438 105.349 7.32812C105.916 7.67188 106.276 8.20833 106.427 8.9375L104.685 9.32812C104.466 8.65104 103.989 8.3125 103.255 8.3125C102.937 8.3125 102.674 8.3724 102.466 8.49219C102.257 8.61198 102.153 8.78906 102.153 9.02344C102.153 9.11198 102.169 9.19271 102.2 9.26562C102.231 9.33854 102.286 9.40365 102.364 9.46094C102.442 9.51823 102.518 9.56771 102.591 9.60938C102.664 9.65104 102.771 9.69531 102.911 9.74219C103.052 9.78385 103.169 9.81771 103.263 9.84375C103.356 9.86458 103.492 9.89844 103.669 9.94531C103.851 9.99219 103.992 10.0286 104.091 10.0547C104.377 10.1328 104.627 10.2109 104.841 10.2891C105.06 10.3672 105.291 10.4766 105.536 10.6172C105.781 10.7578 105.981 10.9167 106.138 11.0938C106.299 11.2656 106.432 11.487 106.536 11.7578C106.64 12.0234 106.692 12.3203 106.692 12.6484C106.692 13.0911 106.601 13.4792 106.419 13.8125C106.242 14.1458 105.997 14.4089 105.685 14.6016C105.372 14.7891 105.023 14.9271 104.638 15.0156C104.257 15.1094 103.841 15.1562 103.388 15.1562ZM114.896 12.8203C114.896 13.6745 114.961 14.3281 115.091 14.7812V15H112.989L112.81 14.125C112.523 14.4688 112.148 14.7266 111.685 14.8984C111.221 15.0703 110.737 15.1562 110.231 15.1562C109.966 15.1562 109.716 15.1328 109.481 15.0859C109.247 15.0391 109.021 14.9609 108.802 14.8516C108.588 14.737 108.403 14.5964 108.247 14.4297C108.091 14.263 107.966 14.0521 107.872 13.7969C107.778 13.5365 107.731 13.2448 107.731 12.9219C107.731 12.599 107.781 12.3099 107.88 12.0547C107.979 11.7943 108.109 11.5755 108.271 11.3984C108.432 11.2214 108.643 11.0625 108.903 10.9219C109.164 10.7812 109.429 10.6667 109.7 10.5781C109.971 10.4896 110.289 10.4062 110.653 10.3281L111.974 10.0312C112.255 9.96354 112.453 9.88021 112.567 9.78125C112.687 9.67708 112.747 9.54167 112.747 9.375C112.747 9.01562 112.614 8.75781 112.349 8.60156C112.088 8.44531 111.771 8.36719 111.396 8.36719C110.474 8.36719 109.95 8.77604 109.825 9.59375L107.833 9.23438C108 8.40625 108.388 7.79688 108.997 7.40625C109.606 7.01042 110.448 6.8125 111.521 6.8125C113.771 6.8125 114.896 7.77865 114.896 9.71094V12.8203ZM110.935 13.6328C111.502 13.6328 111.966 13.4401 112.325 13.0547C112.685 12.6641 112.864 12.0885 112.864 11.3281L110.958 11.8672C110.609 11.9505 110.341 12.0599 110.153 12.1953C109.971 12.3307 109.88 12.5234 109.88 12.7734C109.88 13.0495 109.979 13.263 110.177 13.4141C110.375 13.5599 110.627 13.6328 110.935 13.6328ZM122.161 6.96875H124.544L121.122 15H119.169L115.786 6.96875H118.153L120.153 12.4609L122.161 6.96875ZM132.958 10.8672L132.935 11.4062H126.981C127.028 12.0469 127.242 12.5365 127.622 12.875C128.002 13.2135 128.474 13.3828 129.036 13.3828C129.442 13.3828 129.794 13.2917 130.091 13.1094C130.393 12.9219 130.619 12.651 130.771 12.2969L132.833 12.6016C132.567 13.4089 132.099 14.0365 131.427 14.4844C130.755 14.9323 129.963 15.1562 129.052 15.1562C127.739 15.1562 126.695 14.7891 125.919 14.0547C125.148 13.3151 124.763 12.2917 124.763 10.9844C124.763 9.6875 125.151 8.66667 125.927 7.92188C126.703 7.17188 127.721 6.79688 128.981 6.79688C130.179 6.79688 131.14 7.13802 131.864 7.82031C132.588 8.5026 132.953 9.51823 132.958 10.8672ZM128.997 8.39062C127.903 8.39062 127.252 8.90625 127.044 9.9375H130.731C130.674 9.4375 130.489 9.05469 130.177 8.78906C129.864 8.52344 129.471 8.39062 128.997 8.39062ZM140.364 3H142.614V15H140.481L140.427 13.9531C140.198 14.3438 139.856 14.6484 139.403 14.8672C138.955 15.0807 138.455 15.1875 137.903 15.1875C137.372 15.1875 136.872 15.0911 136.403 14.8984C135.935 14.7057 135.523 14.4349 135.169 14.0859C134.82 13.7318 134.544 13.2891 134.341 12.7578C134.138 12.2266 134.036 11.6406 134.036 11C134.036 10.151 134.213 9.40625 134.567 8.76562C134.922 8.11979 135.388 7.63281 135.966 7.30469C136.549 6.97656 137.195 6.8125 137.903 6.8125C138.44 6.8125 138.924 6.91146 139.356 7.10938C139.794 7.30208 140.13 7.57812 140.364 7.9375V3ZM138.419 13.3203C139.028 13.3203 139.534 13.1068 139.935 12.6797C140.341 12.2526 140.544 11.6927 140.544 11C140.544 10.3073 140.341 9.7474 139.935 9.32031C139.528 8.88802 139.023 8.67188 138.419 8.67188C137.804 8.67188 137.294 8.88281 136.888 9.30469C136.487 9.72656 136.286 10.2917 136.286 11C136.286 11.7031 136.487 12.2656 136.888 12.6875C137.294 13.1094 137.804 13.3203 138.419 13.3203ZM152.739 15.1484C151.474 15.1484 150.44 14.763 149.638 13.9922C148.836 13.2214 148.435 12.2161 148.435 10.9766C148.435 9.73177 148.833 8.72656 149.63 7.96094C150.432 7.19531 151.468 6.8125 152.739 6.8125C153.771 6.8125 154.638 7.07031 155.341 7.58594C156.044 8.10156 156.492 8.82812 156.685 9.76562L154.606 9.99219C154.487 9.52344 154.263 9.17188 153.935 8.9375C153.606 8.70312 153.2 8.58594 152.716 8.58594C152.112 8.58594 151.622 8.80469 151.247 9.24219C150.872 9.67969 150.685 10.2578 150.685 10.9766C150.685 11.6901 150.872 12.2682 151.247 12.7109C151.622 13.1484 152.112 13.3672 152.716 13.3672C153.2 13.3672 153.604 13.25 153.927 13.0156C154.255 12.7812 154.481 12.4297 154.606 11.9609L156.685 12.1875C156.492 13.1198 156.039 13.8464 155.325 14.3672C154.617 14.888 153.755 15.1484 152.739 15.1484ZM164.88 12.8203C164.88 13.6745 164.945 14.3281 165.075 14.7812V15H162.974L162.794 14.125C162.507 14.4688 162.132 14.7266 161.669 14.8984C161.205 15.0703 160.721 15.1562 160.216 15.1562C159.95 15.1562 159.7 15.1328 159.466 15.0859C159.231 15.0391 159.005 14.9609 158.786 14.8516C158.573 14.737 158.388 14.5964 158.231 14.4297C158.075 14.263 157.95 14.0521 157.856 13.7969C157.763 13.5365 157.716 13.2448 157.716 12.9219C157.716 12.599 157.765 12.3099 157.864 12.0547C157.963 11.7943 158.093 11.5755 158.255 11.3984C158.416 11.2214 158.627 11.0625 158.888 10.9219C159.148 10.7812 159.414 10.6667 159.685 10.5781C159.955 10.4896 160.273 10.4062 160.638 10.3281L161.958 10.0312C162.239 9.96354 162.437 9.88021 162.552 9.78125C162.672 9.67708 162.731 9.54167 162.731 9.375C162.731 9.01562 162.599 8.75781 162.333 8.60156C162.073 8.44531 161.755 8.36719 161.38 8.36719C160.458 8.36719 159.935 8.77604 159.81 9.59375L157.817 9.23438C157.984 8.40625 158.372 7.79688 158.981 7.40625C159.591 7.01042 160.432 6.8125 161.505 6.8125C163.755 6.8125 164.88 7.77865 164.88 9.71094V12.8203ZM160.919 13.6328C161.487 13.6328 161.95 13.4401 162.31 13.0547C162.669 12.6641 162.849 12.0885 162.849 11.3281L160.942 11.8672C160.593 11.9505 160.325 12.0599 160.138 12.1953C159.955 12.3307 159.864 12.5234 159.864 12.7734C159.864 13.0495 159.963 13.263 160.161 13.4141C160.359 13.5599 160.612 13.6328 160.919 13.6328ZM169.231 8.24219C169.445 7.86719 169.797 7.54688 170.286 7.28125C170.776 7.01042 171.299 6.875 171.856 6.875V8.88281C170.971 8.88281 170.33 9.04427 169.935 9.36719C169.539 9.6901 169.341 10.263 169.341 11.0859V15H167.075V6.96875H169.231V8.24219ZM178.833 3H181.083V15H178.95L178.896 13.9531C178.666 14.3438 178.325 14.6484 177.872 14.8672C177.424 15.0807 176.924 15.1875 176.372 15.1875C175.841 15.1875 175.341 15.0911 174.872 14.8984C174.403 14.7057 173.992 14.4349 173.638 14.0859C173.289 13.7318 173.013 13.2891 172.81 12.7578C172.606 12.2266 172.505 11.6406 172.505 11C172.505 10.151 172.682 9.40625 173.036 8.76562C173.39 8.11979 173.856 7.63281 174.435 7.30469C175.018 6.97656 175.664 6.8125 176.372 6.8125C176.909 6.8125 177.393 6.91146 177.825 7.10938C178.263 7.30208 178.599 7.57812 178.833 7.9375V3ZM176.888 13.3203C177.497 13.3203 178.002 13.1068 178.403 12.6797C178.81 12.2526 179.013 11.6927 179.013 11C179.013 10.3073 178.81 9.7474 178.403 9.32031C177.997 8.88802 177.492 8.67188 176.888 8.67188C176.273 8.67188 175.763 8.88281 175.356 9.30469C174.955 9.72656 174.755 10.2917 174.755 11C174.755 11.7031 174.955 12.2656 175.356 12.6875C175.763 13.1094 176.273 13.3203 176.888 13.3203Z" fill="#2A3362"/>
</svg>
