<svg width="135" height="32" viewBox="0 0 135 32" fill="none" xmlns="http://www.w3.org/2000/svg">
<path d="M45.7442 10.8887H43.6074V21.883H45.7442V10.8887Z" fill="#2A3362"/>
<path d="M54.015 17.9837C54.015 19.5011 53.0388 20.1829 51.739 20.1829C50.4391 20.1829 49.5704 19.5011 49.5704 18.0607V14.1426H47.4336V18.5567C47.4336 20.7545 48.8117 22.0398 51.1037 22.0398C52.5441 22.0398 53.3492 21.5092 53.889 20.9097H54.0137L54.1994 21.8859H56.1651V14.1426H54.015V17.9837Z" fill="#2A3362"/>
<path d="M74.9757 20.3516C73.4119 20.3516 72.5299 19.6393 72.3906 18.6021H79.1723C79.2036 18.3864 79.2192 18.1688 79.2188 17.9508C79.2042 15.1655 77.0966 13.9863 74.8417 13.9863C72.2248 13.9863 70.2578 15.5514 70.2578 18.0755C70.2578 20.4749 72.1479 22.0387 74.981 22.0387C77.3512 22.0387 78.9296 20.9869 79.2559 19.3754H77.1443C76.8804 20.0107 76.1217 20.3516 74.9757 20.3516ZM74.8431 15.6748C76.2066 15.6748 76.9958 16.2783 77.1204 17.1338H72.437C72.6373 16.3141 73.4278 15.6748 74.8364 15.6748H74.8431Z" fill="#2A3362"/>
<path d="M82.8483 15.2541H82.7157L82.5141 14.1387H80.5723V21.886H82.7091V18.5568C82.7091 17.054 83.5752 16.2184 85.1867 16.2184C85.4795 16.2144 85.7719 16.2401 86.0595 16.2953V14.1427H85.761C84.3365 14.1427 83.4518 14.4371 82.8483 15.2541Z" fill="#2A3362"/>
<path d="M96.5513 19.4693H96.4279L94.6002 14.6227H92.4011L90.6051 19.4547H90.4659L88.7628 14.1426H86.6406L89.2576 21.8859H91.5814L93.4396 16.9452H93.5629L95.3907 21.8859H97.7291L100.346 14.1426H98.2238L96.5513 19.4693Z" fill="#2A3362"/>
<path d="M108.851 19.6307V17.0389C108.851 14.9327 107.069 13.9883 104.854 13.9883C102.501 13.9883 101.03 15.1038 100.829 16.7737H102.965C103.121 16.0455 103.74 15.6436 104.854 15.6436C105.968 15.6436 106.711 16.0614 106.711 16.9129V17.1106L103.227 17.3758C101.617 17.5005 100.441 18.2128 100.441 19.7301C100.441 21.2939 101.789 22.0367 103.771 22.0367C105.37 22.0367 106.345 21.591 106.942 20.9186H107.048C107.384 21.6746 108.064 21.8828 108.804 21.8828H109.702V20.3058H109.501C109.051 20.3058 108.851 20.0896 108.851 19.6307ZM106.712 18.8096C106.712 20.0339 105.253 20.4358 104.003 20.4358C103.151 20.4358 102.594 20.2196 102.594 19.6307C102.594 19.1001 103.074 18.8415 103.788 18.7791L106.714 18.5629L106.712 18.8096Z" fill="#2A3362"/>
<path d="M116.752 14.1426L114.258 19.7491H114.119L111.595 14.1426H109.287L112.895 21.8859H115.451L119.043 14.1426H116.752Z" fill="#2A3362"/>
<path d="M125.873 19.3754C125.608 20.0107 124.851 20.3516 123.705 20.3516C122.141 20.3516 121.259 19.6393 121.12 18.6021H127.901C127.933 18.3864 127.948 18.1688 127.948 17.9508C127.933 15.1655 125.826 13.9863 123.571 13.9863C120.954 13.9863 118.988 15.5514 118.988 18.0755C118.988 20.4749 120.877 22.0387 123.71 22.0387C126.08 22.0387 127.659 20.9869 127.985 19.3754H125.873ZM123.566 15.6748C124.929 15.6748 125.718 16.2783 125.843 17.1338H121.161C121.364 16.3141 122.152 15.6748 123.56 15.6748H123.566Z" fill="#2A3362"/>
<path d="M40.1357 13.5718C40.1357 12.8901 40.6158 12.597 41.2352 12.597C41.5233 12.5996 41.8097 12.6411 42.0867 12.7203L42.4435 11.1711C41.9263 10.9882 41.3819 10.8941 40.8333 10.8926C39.2536 10.8926 37.9843 11.7295 37.9843 13.4631V14.1422H36.1406V15.8386H37.9843V21.8855H40.1357V15.8373H42.5443V14.1422H40.1357V13.5718Z" fill="#2A3362"/>
<path d="M60.8805 11.959H58.8909L58.7795 14.1422H57.0977V15.8386H58.7397V19.6559C58.7397 20.9558 59.4029 22.0434 61.3924 22.0434C61.9082 22.0434 62.4224 21.9864 62.9257 21.8736V20.2435C62.6355 20.3085 62.3397 20.345 62.0424 20.3523C60.9746 20.3523 60.8818 19.7488 60.8818 19.2832V15.8346H63.004V14.1422H60.8805V11.959Z" fill="#2A3362"/>
<path d="M67.5907 11.959H65.6078L65.4964 14.1422H63.8105V15.8386H65.4526V19.6559C65.4526 20.9558 66.1158 22.0434 68.1053 22.0434C68.6199 22.0418 69.1328 21.9835 69.6346 21.8696V20.2435C69.3444 20.3085 69.0486 20.345 68.7513 20.3523C67.6836 20.3523 67.5907 19.7488 67.5907 19.2832V15.8346H69.7195V14.1422H67.5907V11.959Z" fill="#2A3362"/>
<path d="M6.39648 10.5959C6.39648 9.35306 6.75991 8.29196 7.52257 7.5293L8.84894 8.85567C7.37269 10.3266 8.66192 14.8999 12.8652 19.1072C17.0685 23.3144 21.6444 24.6023 23.1194 23.1287L24.4457 24.4551C21.9575 26.9434 16.2899 25.178 11.5455 20.4322C8.25473 17.1402 6.39648 13.4051 6.39648 10.5959Z" fill="#009A46"/>
<path d="M14.7613 25.5981C13.5184 25.5981 12.4573 25.2347 11.6934 24.4721L13.0197 23.1457C14.4933 24.6193 19.0666 23.3301 23.2739 19.1241C27.4811 14.9182 28.7677 10.3449 27.2941 8.87129L28.6205 7.54492C31.1101 10.0332 29.3434 15.7008 24.5976 20.4452C21.3056 23.7412 17.5705 25.5981 14.7613 25.5981Z" fill="#FF5805"/>
<path d="M25.0369 18.5479C24.2318 16.2294 22.5871 13.7517 20.4053 11.5712C15.6608 6.82542 9.99326 5.05869 7.50499 7.54829C7.32859 7.72602 7.48112 8.16505 7.8472 8.53113C8.21327 8.89721 8.6523 9.04842 8.82871 8.87201C10.3036 7.39841 14.877 8.68764 19.0829 12.8949C21.0724 14.8844 22.5553 17.1061 23.2702 19.162C23.8963 20.9645 23.8353 22.4182 23.1058 23.1477C22.928 23.3241 23.0819 23.7645 23.4466 24.1292C23.8114 24.494 24.2517 24.6479 24.4295 24.4701C25.7041 23.1955 25.9203 21.0892 25.0369 18.5479Z" fill="#F5AFCB"/>
<path d="M28.6184 7.54892C27.3411 6.27163 25.2375 6.05543 22.6935 6.94012C20.3763 7.7439 17.8974 9.38992 15.7168 11.5705C10.9724 16.3149 9.20566 21.9825 11.6939 24.4721C11.8717 24.6485 12.3107 24.4959 12.6768 24.1312C13.0428 23.7664 13.1954 23.3261 13.0176 23.1484C11.5401 21.6748 12.8333 17.1014 17.0405 12.8942C19.0301 10.9046 21.2517 9.42176 23.3076 8.70684C25.1102 8.08212 26.5639 8.14181 27.2947 8.87131C27.4711 9.04772 27.9115 8.89519 28.2762 8.52911C28.641 8.16303 28.7948 7.72533 28.6184 7.54892Z" fill="#FF9B00"/>
</svg>
