<svg width="144" height="40" viewBox="0 0 144 40" fill="none" xmlns="http://www.w3.org/2000/svg">
<g opacity="0.9">
<path opacity="0.9" d="M29.5499 19.8408C29.5131 26.1523 27.7965 31.0255 24.4 34.4658C20.9668 37.9429 16.2474 39.6815 10.2367 39.6815H9.08176C7.71162 39.6815 6.59871 38.5646 6.59871 37.1896C6.59871 35.8145 7.71162 34.6976 9.08176 34.6976H10.9086C15.0505 34.6976 18.2423 33.3015 20.4838 30.504C22.6834 27.7433 23.8226 24.1924 23.8961 19.846C23.8226 15.4996 22.6834 11.9276 20.4838 9.13539C18.2423 6.37475 15.0558 4.9997 10.9086 4.9997H9.08176C7.71162 4.9997 6.59871 3.8828 6.59871 2.50775C6.59346 1.1169 7.70637 0 9.08176 0H10.2367C16.2474 0 20.9668 1.7175 24.4 5.15775C27.7912 8.63489 29.5079 13.5292 29.5499 19.8408Z" fill="#3657FF"/>
<path opacity="0.9" d="M2.52504 39.8767C3.91959 39.8767 5.05009 38.7304 5.05009 37.3163C5.05009 35.9022 3.91959 34.7559 2.52504 34.7559C1.1305 34.7559 0 35.9022 0 37.3163C0 38.7304 1.1305 39.8767 2.52504 39.8767Z" fill="#3657FF"/>
</g>
<g opacity="0.9">
<path opacity="0.9" d="M18.2576 20.157C18.2944 26.4685 20.011 31.3418 23.4075 34.782C26.8407 38.2592 31.56 39.9977 37.5708 39.9977H38.7257C40.0959 39.9977 41.2088 38.8808 41.2088 37.5058C41.2088 36.1307 40.0959 35.0138 38.7257 35.0138H36.8989C32.757 35.0138 29.5652 33.6177 27.3289 30.8202C25.1293 28.0596 23.9902 24.5087 23.9167 20.1623C23.9902 15.8158 25.1293 12.2439 27.3289 9.45162C29.5705 6.69098 32.757 5.31593 36.8989 5.31593H38.7257C40.0959 5.31593 41.2088 4.19903 41.2088 2.82398C41.2088 1.44893 40.0959 0.332031 38.7257 0.332031H37.5708C31.56 0.332031 26.8407 2.04953 23.4075 5.48979C20.011 8.95112 18.2944 13.8455 18.2576 20.157Z" fill="#3DDC97"/>
<path opacity="0.9" d="M45.2932 5.43728C46.6877 5.43728 47.8182 4.29094 47.8182 2.87684C47.8182 1.46275 46.6877 0.316406 45.2932 0.316406C43.8986 0.316406 42.7681 1.46275 42.7681 2.87684C42.7681 4.29094 43.8986 5.43728 45.2932 5.43728Z" fill="#3DDC97"/>
</g>
<path d="M48.9355 14.3833C48.5577 14.6487 48.0602 14.6108 47.7076 14.3137C47.5124 14.1494 47.3045 13.9977 47.0778 13.8524C46.6874 13.5933 46.2151 13.3657 45.6672 13.1698C45.1131 12.9739 44.5148 12.8791 43.8662 12.8791C42.7642 12.8791 41.9203 13.1193 41.3347 13.6059C40.749 14.0862 40.4594 14.6234 40.4594 15.2175C40.4594 15.9316 40.749 16.4751 41.3347 16.8543C41.9203 17.2272 42.6571 17.5622 43.5513 17.8592C44.4456 18.1562 45.4028 18.4406 46.4229 18.725C47.4431 19.0031 48.4003 19.3949 49.2945 19.8942C50.1887 20.3935 50.9255 21.0444 51.5112 21.8534C52.0842 22.6434 52.3739 23.6735 52.3865 24.9375C52.3928 25.62 52.2983 26.3089 52.0779 26.9598C51.6875 28.1037 51.0011 29.096 50.025 29.9302C49.263 30.5811 48.3373 31.0994 47.2479 31.4722C46.1584 31.8451 44.9493 32.0347 43.6206 32.0347C42.0652 32.0347 40.7301 31.8262 39.6281 31.4027C38.5261 30.9793 37.6004 30.5053 36.851 29.9871C36.1457 29.5131 35.5222 28.9696 34.987 28.3502C34.6406 27.9521 34.6091 27.358 34.8925 26.9156C35.0499 26.6754 35.2829 26.3784 35.623 26.0371C36.1205 25.5379 36.5109 25.2408 36.8258 25.0702C37.254 24.83 37.7704 24.9185 38.1167 25.2661C38.482 25.6327 38.885 25.9676 39.3258 26.271C39.8422 26.6059 40.4531 26.9219 41.1521 27.2126C41.8511 27.5034 42.6697 27.6487 43.608 27.6487C44.9682 27.6487 45.9632 27.3833 46.5741 26.8524C47.1912 26.3215 47.4998 25.6516 47.4998 24.8427C47.4998 24.1601 47.2101 23.6229 46.6244 23.2311C46.0388 22.8393 45.302 22.498 44.4078 22.201C43.5135 21.9039 42.5564 21.6195 41.5362 21.3351C40.516 21.0571 39.5588 20.6652 38.6646 20.166C37.7704 19.6667 37.0336 19.0221 36.448 18.2257C35.8623 17.4294 35.5726 16.3677 35.5726 15.0279C35.5726 14.2189 35.7741 13.4163 36.1835 12.62C36.5865 11.8237 37.1596 11.1285 37.89 10.5155C38.6205 9.90877 39.4896 9.41581 40.4908 9.04294C41.4984 8.67007 42.613 8.48047 43.8473 8.48047C45.1131 8.48047 46.2151 8.65111 47.1597 8.99238C48.098 9.33366 48.8978 9.70021 49.5464 10.092C50.0754 10.4144 50.5351 10.7683 50.9381 11.1601C51.2278 11.4445 51.2782 11.8995 51.0452 12.2345C50.8373 12.5252 50.5351 12.9234 50.0817 13.4163C49.7416 13.7829 49.3008 14.1241 48.9355 14.3833Z" fill="#F9F9F9"/>
<path d="M65.3772 32.0171C64.2059 32.0171 63.1605 31.8528 62.2348 31.5305C61.3091 31.2082 60.522 30.848 59.8733 30.4561C59.0925 30.0011 58.4123 29.4639 57.8267 28.8446V39.8222C57.8267 39.9233 57.7448 39.9992 57.6504 39.9992H53.1352C53.0344 39.9992 52.9589 39.917 52.9589 39.8222V8.69673C52.9589 8.59561 53.0407 8.51977 53.1352 8.51977H56.7498C57.3481 8.51977 57.8267 9.0064 57.8267 9.60047V10.2451V11.1109C57.8267 11.2626 58.003 11.3448 58.1164 11.2436C58.6328 10.7886 59.2184 10.3778 59.867 10.0113C60.5157 9.63839 61.3028 9.28448 62.2285 8.95584C63.1542 8.62721 64.1996 8.46289 65.3709 8.46289C66.8948 8.46289 68.3495 8.76624 69.7286 9.37927C71.1077 9.9923 72.3231 10.8202 73.3811 11.8756C74.4327 12.9247 75.2703 14.1761 75.8874 15.617C76.5046 17.0579 76.8131 18.6 76.8131 20.2305C76.8131 21.8927 76.5046 23.441 75.8874 24.8693C75.2703 26.2976 74.4327 27.5363 73.3811 28.5918C72.3231 29.6409 71.1077 30.4751 69.7286 31.0881C68.3558 31.7138 66.9011 32.0171 65.3772 32.0171ZM64.8923 12.8679C63.9855 12.8679 63.1101 13.0575 62.2663 13.443C61.4225 13.8285 60.6668 14.3467 60.0056 15.0103C59.3381 15.6739 58.8154 16.4449 58.4249 17.336C58.0345 18.2271 57.8393 19.1941 57.8393 20.2369C57.8393 21.2796 58.0345 22.2529 58.4249 23.144C58.8154 24.0351 59.3444 24.8125 60.0056 25.4697C60.6731 26.1333 61.4225 26.6516 62.2663 27.0371C63.1101 27.4226 63.9855 27.6122 64.8923 27.6122C65.7991 27.6122 66.6744 27.4226 67.5183 27.0371C68.3621 26.6516 69.1178 26.1333 69.779 25.4697C70.4465 24.8061 70.9692 24.0351 71.3596 23.144C71.7501 22.2529 71.9453 21.286 71.9453 20.2369C71.9453 19.1941 71.7501 18.2271 71.3596 17.336C70.9692 16.4449 70.4402 15.6676 69.779 15.0103C69.1115 14.3467 68.3621 13.8285 67.5183 13.443C66.6744 13.0638 65.7991 12.8679 64.8923 12.8679Z" fill="#F9F9F9"/>
<path d="M82.6266 31.966H78.0295C77.954 31.966 77.891 31.9028 77.891 31.827V0.139038C77.891 0.0631988 77.954 0 78.0295 0H82.6266C82.7021 0 82.7651 0.0631988 82.7651 0.139038V31.827C82.7651 31.9092 82.7021 31.966 82.6266 31.966Z" fill="#F9F9F9"/>
<path d="M89.5654 21.3667C89.1183 21.3667 88.7782 21.7965 88.9042 22.2326C89.049 22.7382 89.2505 23.2311 89.515 23.7241C89.918 24.4888 90.4407 25.1587 91.0704 25.7275C91.7002 26.2963 92.4433 26.7513 93.2871 27.1052C94.1309 27.4528 95.0378 27.6298 96.0138 27.6298C97.1474 27.6298 98.1612 27.4402 99.0555 27.0673C99.9497 26.6944 100.686 26.2773 101.272 25.8223C101.763 25.4241 102.21 24.988 102.62 24.5204C102.878 24.2296 103.331 24.2233 103.602 24.4951L104.459 25.3546L105.794 26.6944C106.052 26.9535 106.058 27.3706 105.812 27.6424C105.183 28.3502 104.446 28.9948 103.608 29.5763C102.733 30.1956 101.663 30.7581 100.397 31.2637C99.131 31.7693 97.67 32.0221 96.0138 32.0221C94.3576 32.0221 92.8022 31.7061 91.3412 31.0804C89.8803 30.4547 88.5893 29.5889 87.4747 28.4893C86.3538 27.3896 85.4721 26.1193 84.8235 24.672C84.1749 23.2248 83.8474 21.6764 83.8474 20.0143C83.8474 18.4153 84.1623 16.9112 84.7983 15.5145C85.4343 14.1178 86.2845 12.8981 87.355 11.8679C88.4256 10.8315 89.685 10.0099 91.1271 9.39685C92.5692 8.78382 94.1183 8.48047 95.7745 8.48047C97.4307 8.48047 98.9547 8.75222 100.353 9.28942C101.751 9.82661 102.953 10.585 103.98 11.5519C105 12.5252 105.8 13.6691 106.367 14.9963C106.933 16.3235 107.217 17.7707 107.217 19.3381C107.217 19.6793 107.198 19.989 107.166 20.2608C107.135 20.5388 107.103 20.7853 107.066 21.0002C107.034 21.2467 107.003 21.3667 106.971 21.3667C106.669 21.3667 106.581 21.3667 106.581 21.3667H89.5654ZM95.7619 12.6263C93.9105 12.6263 92.4055 13.0814 91.2342 13.9851C90.3526 14.6676 89.6913 15.4766 89.2568 16.4119C89.049 16.8543 89.3954 17.3662 89.8866 17.3662H101.505C101.996 17.3662 102.317 16.8606 102.135 16.4056C101.757 15.4766 101.134 14.6676 100.265 13.9851C99.1121 13.075 97.6134 12.6263 95.7619 12.6263Z" fill="#F9F9F9"/>
<path d="M108.577 21.3667C108.577 21.3667 108.489 21.3667 108.186 21.3667C108.155 21.3667 108.123 21.2467 108.092 21.0002C108.06 20.7853 108.029 20.5388 107.991 20.2608C107.96 19.9827 107.941 19.673 107.941 19.3381C107.941 17.7644 108.224 16.3171 108.791 14.9963C109.358 13.6691 110.151 12.5252 111.178 11.5519C112.198 10.5787 113.407 9.82661 114.805 9.28942C116.203 8.75222 117.727 8.48047 119.383 8.48047C121.039 8.48047 122.588 8.78382 124.03 9.39685C125.473 10.0099 126.732 10.8315 127.803 11.8679C128.873 12.9044 129.723 14.1178 130.359 15.5145C130.995 16.9112 131.31 18.409 131.31 20.0143C131.31 21.6764 130.989 23.2311 130.334 24.672C129.685 26.113 128.804 27.3896 127.683 28.4893C126.562 29.5889 125.271 30.4547 123.816 31.0804C122.355 31.7061 120.8 32.0221 119.144 32.0221C117.488 32.0221 116.027 31.7693 114.761 31.2637C113.495 30.7581 112.424 30.1956 111.549 29.5763C110.705 28.9948 109.975 28.3502 109.345 27.6424C109.1 27.3706 109.106 26.9535 109.364 26.6944L110.699 25.3546L111.555 24.4951C111.833 24.217 112.286 24.2233 112.538 24.5204C112.947 24.988 113.394 25.4241 113.885 25.8223C114.471 26.2773 115.208 26.6944 116.102 27.0673C116.996 27.4402 118.01 27.6298 119.144 27.6298C120.12 27.6298 121.027 27.4528 121.87 27.1052C122.714 26.7576 123.451 26.2963 124.087 25.7275C124.723 25.1587 125.24 24.4951 125.643 23.7241C125.901 23.2374 126.102 22.7382 126.253 22.2326C126.379 21.8028 126.039 21.3667 125.592 21.3667H108.577ZM114.874 13.9851C114.005 14.6676 113.382 15.4766 113.004 16.4056C112.815 16.8606 113.142 17.3662 113.634 17.3662H125.252C125.743 17.3662 126.09 16.8543 125.882 16.4119C125.441 15.4766 124.786 14.6676 123.905 13.9851C122.733 13.0814 121.228 12.6263 119.377 12.6263C117.525 12.6263 116.027 13.075 114.874 13.9851Z" fill="#F9F9F9"/>
<path d="M135.347 0.263672H137.57C138.169 0.263672 138.647 0.750304 138.647 1.34437V5.43335V6.59594C138.647 7.19633 138.468 8.51114 140.546 8.51114H142.432C143.03 8.51114 143.509 8.99777 143.509 9.59184V11.8228C143.509 12.4232 143.024 12.9035 142.432 12.9035H139.724C139.126 12.9035 138.647 13.3901 138.647 13.9842V24.709C138.647 25.5622 138.924 26.2574 139.472 26.7946C140.026 27.3318 140.719 27.6035 141.563 27.6035C142.18 27.6035 142.734 27.5277 143.219 27.3697C143.477 27.3065 143.736 27.2307 144 27.1359V27.6604V30.6813C144 31.1996 143.641 31.6483 143.137 31.7431C143.1 31.7494 143.062 31.7557 143.03 31.762C142.319 31.9264 141.506 32.0085 140.593 32.0085C138.389 32.0085 136.701 31.4144 135.53 30.22C134.359 29.0255 133.779 27.237 133.779 24.8481V13.9968C133.779 13.3964 133.295 12.9161 132.703 12.9161H130.48C129.881 12.9161 129.403 12.4295 129.403 11.8354V9.60448C129.403 9.00409 129.888 8.52378 130.48 8.52378H131.834C132.577 8.52378 133.175 8.26466 133.609 7.75275C134.05 7.23452 134.264 6.46349 134.264 5.43335V1.35069C134.271 0.750304 134.756 0.263672 135.347 0.263672Z" fill="#F9F9F9"/>
</svg>
