<svg width="101" height="24" viewBox="0 0 101 24" fill="none" xmlns="http://www.w3.org/2000/svg">
<path d="M21.5065 0H1.24675C0.56102 0 0 0.571415 0 1.26985V3.55555C0 4.25398 0.56102 4.8254 1.24675 4.8254H21.4442C22.1299 4.8254 22.6909 4.25398 22.6909 3.55555V1.26985C22.7533 0.571415 22.1922 0 21.5065 0ZM21.5065 12.7619H1.24675C0.56102 12.7619 0 13.3333 0 14.0317V16.3174C0 17.0159 0.56102 17.5873 1.24675 17.5873H21.4442C22.1299 17.5873 22.6909 17.0159 22.6909 16.3174V14.0317C22.7533 13.3333 22.1922 12.7619 21.5065 12.7619ZM12.6545 19.1746H1.24675C0.56102 19.1746 0 19.746 0 20.4445V22.7302C0 23.4286 0.56102 24 1.24675 24H12.6545C13.3403 24 13.9013 23.4286 13.9013 22.7302V20.4445C13.9013 19.746 13.3403 19.1746 12.6545 19.1746ZM22.7533 6.4127H1.24675C0.56102 6.4127 0 6.98412 0 7.68251V9.96825C0 10.6666 0.56102 11.2381 1.24675 11.2381H22.7533C23.439 11.2381 24 10.6666 24 9.96825V7.68251C24 6.98412 23.439 6.4127 22.7533 6.4127Z" fill="#0BA4DB"/>
<path d="M38.1562 5.71094C39.2344 5.71094 40.1016 6.0625 40.7578 6.76562C41.4141 7.46354 41.7422 8.32812 41.7422 9.35938C41.7422 10.4062 41.4167 11.2682 40.7656 11.9453C40.1146 12.6172 39.2448 12.9531 38.1562 12.9531H35.8047V17H33.4609V5.71094H38.1562ZM37.7656 10.9922C38.3385 10.9922 38.7682 10.8464 39.0547 10.5547C39.3411 10.2578 39.4844 9.84896 39.4844 9.32812C39.4844 8.82292 39.3385 8.42188 39.0469 8.125C38.7604 7.82292 38.3333 7.67188 37.7656 7.67188H35.8047V10.9922H37.7656ZM49.7188 14.8203C49.7188 15.6745 49.7839 16.3281 49.9141 16.7812V17H47.8125L47.6328 16.125C47.3464 16.4688 46.9714 16.7266 46.5078 16.8984C46.0443 17.0703 45.5599 17.1562 45.0547 17.1562C44.7891 17.1562 44.5391 17.1328 44.3047 17.0859C44.0703 17.0391 43.8438 16.9609 43.625 16.8516C43.4115 16.737 43.2266 16.5964 43.0703 16.4297C42.9141 16.263 42.7891 16.0521 42.6953 15.7969C42.6016 15.5365 42.5547 15.2448 42.5547 14.9219C42.5547 14.599 42.6042 14.3099 42.7031 14.0547C42.8021 13.7943 42.9323 13.5755 43.0938 13.3984C43.2552 13.2214 43.4661 13.0625 43.7266 12.9219C43.987 12.7812 44.2526 12.6667 44.5234 12.5781C44.7943 12.4896 45.112 12.4062 45.4766 12.3281L46.7969 12.0312C47.0781 11.9635 47.276 11.8802 47.3906 11.7812C47.5104 11.6771 47.5703 11.5417 47.5703 11.375C47.5703 11.0156 47.4375 10.7578 47.1719 10.6016C46.9115 10.4453 46.5938 10.3672 46.2188 10.3672C45.2969 10.3672 44.7734 10.776 44.6484 11.5938L42.6562 11.2344C42.8229 10.4062 43.2109 9.79688 43.8203 9.40625C44.4297 9.01042 45.2708 8.8125 46.3438 8.8125C48.5938 8.8125 49.7188 9.77865 49.7188 11.7109V14.8203ZM45.7578 15.6328C46.3255 15.6328 46.7891 15.4401 47.1484 15.0547C47.5078 14.6641 47.6875 14.0885 47.6875 13.3281L45.7812 13.8672C45.4323 13.9505 45.1641 14.0599 44.9766 14.1953C44.7943 14.3307 44.7031 14.5234 44.7031 14.7734C44.7031 15.0495 44.8021 15.263 45 15.4141C45.1979 15.5599 45.4505 15.6328 45.7578 15.6328ZM57.0156 8.96875H59.3203L54.3672 20.7812H52.0859L53.9219 16.6719L50.6172 8.96875H53.0703L54.9844 14.25L57.0156 8.96875ZM63.1797 17.1562C62.2422 17.1562 61.4609 16.9688 60.8359 16.5938C60.2109 16.2188 59.8281 15.6615 59.6875 14.9219L61.5703 14.3906C61.7943 15.1875 62.3307 15.5859 63.1797 15.5859C63.5078 15.5859 63.7812 15.526 64 15.4062C64.2188 15.2812 64.3255 15.0729 64.3203 14.7812C64.3203 14.6198 64.276 14.4818 64.1875 14.3672C64.099 14.2526 63.9609 14.1536 63.7734 14.0703C63.5911 13.987 63.4089 13.9167 63.2266 13.8594C63.0495 13.8021 62.8125 13.7344 62.5156 13.6562C62.2188 13.5729 61.9714 13.4948 61.7734 13.4219C61.5026 13.3281 61.2656 13.2292 61.0625 13.125C60.8646 13.0156 60.6693 12.8776 60.4766 12.7109C60.2891 12.5391 60.1432 12.3281 60.0391 12.0781C59.9401 11.8281 59.8906 11.5417 59.8906 11.2188C59.8906 10.4271 60.1797 9.82812 60.7578 9.42188C61.3411 9.01562 62.1016 8.8125 63.0391 8.8125C63.8724 8.8125 64.5729 8.98438 65.1406 9.32812C65.7083 9.67188 66.0677 10.2083 66.2188 10.9375L64.4766 11.3281C64.2578 10.651 63.7812 10.3125 63.0469 10.3125C62.7292 10.3125 62.4661 10.3724 62.2578 10.4922C62.0495 10.612 61.9453 10.7891 61.9453 11.0234C61.9453 11.112 61.9609 11.1927 61.9922 11.2656C62.0234 11.3385 62.0781 11.4036 62.1562 11.4609C62.2344 11.5182 62.3099 11.5677 62.3828 11.6094C62.4557 11.651 62.5625 11.6953 62.7031 11.7422C62.8438 11.7839 62.9609 11.8177 63.0547 11.8438C63.1484 11.8646 63.2839 11.8984 63.4609 11.9453C63.6432 11.9922 63.7839 12.0286 63.8828 12.0547C64.1693 12.1328 64.4193 12.2109 64.6328 12.2891C64.8516 12.3672 65.0833 12.4766 65.3281 12.6172C65.5729 12.7578 65.7734 12.9167 65.9297 13.0938C66.0911 13.2656 66.224 13.487 66.3281 13.7578C66.4323 14.0234 66.4844 14.3203 66.4844 14.6484C66.4844 15.0911 66.3932 15.4792 66.2109 15.8125C66.0339 16.1458 65.7891 16.4089 65.4766 16.6016C65.1641 16.7891 64.8151 16.9271 64.4297 17.0156C64.0495 17.1094 63.6328 17.1562 63.1797 17.1562ZM71.0938 17C70.3125 17 69.7083 16.7839 69.2812 16.3516C68.8542 15.9141 68.6406 15.2943 68.6406 14.4922V10.6953H67.0625V8.96875H67.5703C68.0234 8.96875 68.3568 8.85677 68.5703 8.63281C68.7839 8.40885 68.8906 8.01042 68.8906 7.4375V6.375H70.9219V8.96875H72.5781V10.6953H70.9219V14.25C70.9219 14.9427 71.2318 15.2891 71.8516 15.2891H72.5781V17H71.0938ZM80.875 14.8203C80.875 15.6745 80.9401 16.3281 81.0703 16.7812V17H78.9688L78.7891 16.125C78.5026 16.4688 78.1276 16.7266 77.6641 16.8984C77.2005 17.0703 76.7161 17.1562 76.2109 17.1562C75.9453 17.1562 75.6953 17.1328 75.4609 17.0859C75.2266 17.0391 75 16.9609 74.7812 16.8516C74.5677 16.737 74.3828 16.5964 74.2266 16.4297C74.0703 16.263 73.9453 16.0521 73.8516 15.7969C73.7578 15.5365 73.7109 15.2448 73.7109 14.9219C73.7109 14.599 73.7604 14.3099 73.8594 14.0547C73.9583 13.7943 74.0885 13.5755 74.25 13.3984C74.4115 13.2214 74.6224 13.0625 74.8828 12.9219C75.1432 12.7812 75.4089 12.6667 75.6797 12.5781C75.9505 12.4896 76.2682 12.4062 76.6328 12.3281L77.9531 12.0312C78.2344 11.9635 78.4323 11.8802 78.5469 11.7812C78.6667 11.6771 78.7266 11.5417 78.7266 11.375C78.7266 11.0156 78.5938 10.7578 78.3281 10.6016C78.0677 10.4453 77.75 10.3672 77.375 10.3672C76.4531 10.3672 75.9297 10.776 75.8047 11.5938L73.8125 11.2344C73.9792 10.4062 74.3672 9.79688 74.9766 9.40625C75.5859 9.01042 76.4271 8.8125 77.5 8.8125C79.75 8.8125 80.875 9.77865 80.875 11.7109V14.8203ZM76.9141 15.6328C77.4818 15.6328 77.9453 15.4401 78.3047 15.0547C78.6641 14.6641 78.8438 14.0885 78.8438 13.3281L76.9375 13.8672C76.5885 13.9505 76.3203 14.0599 76.1328 14.1953C75.9505 14.3307 75.8594 14.5234 75.8594 14.7734C75.8594 15.0495 75.9583 15.263 76.1562 15.4141C76.3542 15.5599 76.6068 15.6328 76.9141 15.6328ZM86.5156 17.1484C85.25 17.1484 84.2161 16.763 83.4141 15.9922C82.612 15.2214 82.2109 14.2161 82.2109 12.9766C82.2109 11.7318 82.6094 10.7266 83.4062 9.96094C84.2083 9.19531 85.2448 8.8125 86.5156 8.8125C87.5469 8.8125 88.4141 9.07031 89.1172 9.58594C89.8203 10.1016 90.2682 10.8281 90.4609 11.7656L88.3828 11.9922C88.263 11.5234 88.0391 11.1719 87.7109 10.9375C87.3828 10.7031 86.9766 10.5859 86.4922 10.5859C85.888 10.5859 85.3984 10.8047 85.0234 11.2422C84.6484 11.6797 84.4609 12.2578 84.4609 12.9766C84.4609 13.6901 84.6484 14.2682 85.0234 14.7109C85.3984 15.1484 85.888 15.3672 86.4922 15.3672C86.9766 15.3672 87.3802 15.25 87.7031 15.0156C88.0312 14.7812 88.2578 14.4297 88.3828 13.9609L90.4609 14.1875C90.2682 15.1198 89.8151 15.8464 89.1016 16.3672C88.3932 16.888 87.5312 17.1484 86.5156 17.1484ZM97.3984 17L94.8125 13.625H94.3438V17H92.0703V5H94.3438V12.0625H94.7656L97.2891 8.96875H99.8359L96.6719 12.6953L100.133 17H97.3984Z" fill="#2A3362"/>
</svg>
