<svg width="94" height="27" viewBox="0 0 94 27" fill="none" xmlns="http://www.w3.org/2000/svg">
<g opacity="0.9">
<path opacity="0.9" d="M19.2896 12.9053C19.2656 17.0107 18.1451 20.1805 15.9279 22.4182C13.6868 24.6798 10.6061 25.8107 6.68241 25.8107H5.92851C5.03411 25.8107 4.30763 25.0842 4.30763 24.1898C4.30763 23.2954 5.03411 22.5689 5.92851 22.5689H7.12104C9.82479 22.5689 11.9083 21.6608 13.3715 19.8412C14.8074 18.0456 15.551 15.7359 15.599 12.9088C15.551 10.0817 14.8074 7.75829 13.3715 5.94208C11.9083 4.14643 9.82821 3.25204 7.12104 3.25204H5.92851C5.03411 3.25204 4.30763 2.52555 4.30763 1.63116C4.3042 0.726483 5.03069 0 5.92851 0H6.68241C10.6061 0 13.6868 1.11714 15.9279 3.35484C18.1416 5.61653 19.2622 8.80003 19.2896 12.9053Z" fill="#3657FF"/>
<path opacity="0.9" d="M1.64829 25.9374C2.55862 25.9374 3.29659 25.1918 3.29659 24.272C3.29659 23.3522 2.55862 22.6065 1.64829 22.6065C0.737966 22.6065 0 23.3522 0 24.272C0 25.1918 0.737966 25.9374 1.64829 25.9374Z" fill="#3657FF"/>
</g>
<g opacity="0.9">
<path opacity="0.9" d="M11.918 13.1122C11.942 17.2175 13.0625 20.3873 15.2797 22.625C17.5208 24.8867 20.6015 26.0176 24.5252 26.0176H25.2791C26.1735 26.0176 26.9 25.2911 26.9 24.3967C26.9 23.5023 26.1735 22.7758 25.2791 22.7758H24.0866C21.3828 22.7758 19.2993 21.8677 17.8395 20.0481C16.4037 18.2524 15.66 15.9428 15.6121 13.1157C15.66 10.2885 16.4037 7.96517 17.8395 6.14896C19.3027 4.35332 21.3828 3.45892 24.0866 3.45892H25.2791C26.1735 3.45892 26.9 2.73244 26.9 1.83804C26.9 0.943646 26.1735 0.217163 25.2791 0.217163H24.5252C20.6015 0.217163 17.5208 1.3343 15.2797 3.57201C13.0625 5.82342 11.942 9.00692 11.918 13.1122Z" fill="#3DDC97"/>
<path opacity="0.9" d="M29.5663 3.53578C30.4766 3.53578 31.2146 2.79014 31.2146 1.87035C31.2146 0.950563 30.4766 0.204926 29.5663 0.204926C28.6559 0.204926 27.918 0.950563 27.918 1.87035C27.918 2.79014 28.6559 3.53578 29.5663 3.53578Z" fill="#3DDC97"/>
</g>
<path d="M31.9432 9.35595C31.6966 9.5286 31.3718 9.50394 31.1416 9.31073C31.0142 9.20386 30.8785 9.1052 30.7305 9.01065C30.4757 8.84211 30.1674 8.69412 29.8097 8.56669C29.448 8.43925 29.0575 8.37759 28.6341 8.37759C27.9147 8.37759 27.3638 8.5338 26.9815 8.85033C26.5992 9.16275 26.4101 9.51216 26.4101 9.89857C26.4101 10.3631 26.5992 10.7166 26.9815 10.9633C27.3638 11.2058 27.8448 11.4237 28.4285 11.6169C29.0122 11.8101 29.6371 11.9951 30.303 12.18C30.969 12.3609 31.5938 12.6158 32.1775 12.9405C32.7612 13.2653 33.2422 13.6887 33.6245 14.2149C33.9986 14.7287 34.1877 15.3988 34.1959 16.2209C34.2 16.6649 34.1384 17.1129 33.9945 17.5363C33.7396 18.2804 33.2915 18.9258 32.6544 19.4684C32.157 19.8918 31.5527 20.2289 30.8415 20.4714C30.1304 20.714 29.3411 20.8373 28.4737 20.8373C27.4584 20.8373 26.5869 20.7016 25.8675 20.4262C25.1481 20.1508 24.5439 19.8425 24.0547 19.5054C23.5943 19.1971 23.1873 18.8436 22.8379 18.4407C22.6118 18.1817 22.5912 17.7953 22.7762 17.5076C22.879 17.3514 23.0311 17.1582 23.2531 16.9362C23.5778 16.6114 23.8327 16.4182 24.0382 16.3072C24.3178 16.151 24.6548 16.2086 24.8809 16.4347C25.1194 16.6731 25.3824 16.891 25.6702 17.0883C26.0073 17.3061 26.406 17.5117 26.8623 17.7008C27.3186 17.8899 27.853 17.9844 28.4655 17.9844C29.3534 17.9844 30.0029 17.8118 30.4017 17.4665C30.8045 17.1212 31.006 16.6854 31.006 16.1592C31.006 15.7153 30.8169 15.3659 30.4346 15.111C30.0523 14.8561 29.5713 14.6342 28.9876 14.441C28.4039 14.2477 27.779 14.0628 27.1131 13.8778C26.4471 13.6969 25.8223 13.442 25.2386 13.1173C24.6548 12.7925 24.1739 12.3732 23.7916 11.8553C23.4093 11.3373 23.2202 10.6467 23.2202 9.77525C23.2202 9.24907 23.3517 8.72701 23.6189 8.20905C23.882 7.6911 24.2561 7.23892 24.7329 6.84017C25.2098 6.44554 25.7771 6.1249 26.4307 5.88237C27.0884 5.63983 27.816 5.51651 28.6217 5.51651C29.448 5.51651 30.1674 5.6275 30.784 5.84948C31.3965 6.07146 31.9185 6.30989 32.342 6.56475C32.6873 6.7744 32.9873 7.0046 33.2504 7.25947C33.4395 7.44445 33.4724 7.74043 33.3203 7.9583C33.1847 8.14739 32.9873 8.40637 32.6914 8.72701C32.4694 8.96543 32.1816 9.18741 31.9432 9.35595Z" fill="#0F0C3D"/>
<path d="M42.6767 20.825C41.9121 20.825 41.2297 20.7181 40.6255 20.5084C40.0212 20.2988 39.5073 20.0645 39.0839 19.8096C38.5742 19.5136 38.1302 19.1642 37.7479 18.7614V25.9017C37.7479 25.9675 37.6945 26.0168 37.6328 26.0168H34.6854C34.6196 26.0168 34.5703 25.9634 34.5703 25.9017V5.65628C34.5703 5.59051 34.6238 5.54118 34.6854 5.54118H37.045C37.4355 5.54118 37.7479 5.85771 37.7479 6.24412V6.66341V7.22659C37.7479 7.32524 37.863 7.37868 37.937 7.31291C38.2741 7.01694 38.6564 6.74974 39.0798 6.51131C39.5032 6.26878 40.0171 6.03858 40.6213 5.82482C41.2256 5.61106 41.908 5.50418 42.6726 5.50418C43.6674 5.50418 44.617 5.7015 45.5172 6.10024C46.4175 6.49898 47.2109 7.03749 47.9015 7.72399C48.588 8.40637 49.1347 9.2203 49.5376 10.1576C49.9404 11.0948 50.1418 12.0978 50.1418 13.1584C50.1418 14.2395 49.9404 15.2467 49.5376 16.1757C49.1347 17.1047 48.588 17.9104 47.9015 18.5969C47.2109 19.2793 46.4175 19.8219 45.5172 20.2207C44.6211 20.6276 43.6715 20.825 42.6767 20.825ZM42.3602 8.36937C41.7682 8.36937 41.1968 8.4927 40.646 8.74345C40.0952 8.99421 39.6019 9.33129 39.1702 9.76292C38.7345 10.1945 38.3933 10.6961 38.1384 11.2757C37.8836 11.8553 37.7561 12.4842 37.7561 13.1625C37.7561 13.8408 37.8836 14.4738 38.1384 15.0535C38.3933 15.6331 38.7386 16.1387 39.1702 16.5662C39.606 16.9978 40.0952 17.3349 40.646 17.5857C41.1968 17.8364 41.7682 17.9598 42.3602 17.9598C42.9521 17.9598 43.5235 17.8364 44.0744 17.5857C44.6252 17.3349 45.1185 16.9978 45.5501 16.5662C45.9859 16.1346 46.3271 15.6331 46.5819 15.0535C46.8368 14.4738 46.9642 13.8449 46.9642 13.1625C46.9642 12.4842 46.8368 11.8553 46.5819 11.2757C46.3271 10.6961 45.9818 10.1904 45.5501 9.76292C45.1144 9.33129 44.6252 8.99421 44.0744 8.74345C43.5235 8.49681 42.9521 8.36937 42.3602 8.36937Z" fill="#0F0C3D"/>
<path d="M53.935 20.7922H50.9342C50.8849 20.7922 50.8438 20.7511 50.8438 20.7017V0.0904365C50.8438 0.0411074 50.8849 0 50.9342 0H53.935C53.9844 0 54.0255 0.0411074 54.0255 0.0904365V20.7017C54.0255 20.7552 53.9844 20.7922 53.935 20.7922Z" fill="#0F0C3D"/>
<path d="M58.466 13.8983C58.1741 13.8983 57.9521 14.1779 58.0343 14.4615C58.1289 14.7904 58.2604 15.111 58.4331 15.4316C58.6962 15.929 59.0374 16.3648 59.4484 16.7348C59.8595 17.1047 60.3446 17.4007 60.8954 17.6309C61.4463 17.857 62.0382 17.9721 62.6754 17.9721C63.4153 17.9721 64.0771 17.8488 64.6609 17.6062C65.2446 17.3637 65.7256 17.0924 66.1079 16.7964C66.4285 16.5374 66.7204 16.2538 66.9876 15.9496C67.1561 15.7605 67.4521 15.7564 67.6288 15.9332L68.1879 16.4922L69.0594 17.3637C69.2279 17.5322 69.232 17.8035 69.0717 17.9803C68.6606 18.4407 68.1797 18.86 67.6329 19.2382C67.0615 19.6411 66.3627 20.0069 65.5365 20.3358C64.7102 20.6646 63.7565 20.8291 62.6754 20.8291C61.5942 20.8291 60.5789 20.6235 59.6252 20.2166C58.6715 19.8096 57.8288 19.2464 57.1012 18.5312C56.3695 17.8159 55.794 16.9896 55.3706 16.0483C54.9472 15.1069 54.7334 14.0998 54.7334 13.0186C54.7334 11.9786 54.9389 11.0003 55.3541 10.0918C55.7693 9.1833 56.3243 8.38993 57.0231 7.71987C57.7219 7.04571 58.5441 6.51131 59.4854 6.11257C60.4268 5.71383 61.438 5.51651 62.5192 5.51651C63.6003 5.51651 64.5951 5.69327 65.5077 6.04269C66.4203 6.3921 67.2054 6.88539 67.8755 7.51434C68.5414 8.14739 69.0635 8.89144 69.4335 9.7547C69.8034 10.618 69.9884 11.5593 69.9884 12.5788C69.9884 12.8008 69.9761 13.0022 69.9555 13.179C69.935 13.3598 69.9144 13.5201 69.8897 13.6599C69.8692 13.8202 69.8486 13.8983 69.8281 13.8983C69.6308 13.8983 69.5732 13.8983 69.5732 13.8983H58.466ZM62.5109 8.21316C61.3024 8.21316 60.3199 8.50914 59.5553 9.09698C58.9798 9.54094 58.5482 10.0671 58.2645 10.6755C58.1289 10.9633 58.355 11.2962 58.6756 11.2962H66.26C66.5806 11.2962 66.7902 10.9674 66.671 10.6714C66.4244 10.0671 66.0174 9.54094 65.4501 9.09698C64.6979 8.50503 63.7195 8.21316 62.5109 8.21316Z" fill="#0F0C3D"/>
<path d="M70.8761 13.8984C70.8761 13.8984 70.8186 13.8984 70.6213 13.8984C70.6007 13.8984 70.5801 13.8203 70.5596 13.66C70.539 13.5202 70.5185 13.3599 70.4938 13.179C70.4733 12.9982 70.4609 12.7967 70.4609 12.5789C70.4609 11.5553 70.6459 10.6139 71.0159 9.75479C71.3859 8.89153 71.9038 8.14748 72.5739 7.51443C73.2398 6.88137 74.0291 6.39219 74.9417 6.04278C75.8542 5.69336 76.849 5.5166 77.9302 5.5166C79.0113 5.5166 80.0225 5.71392 80.9639 6.11266C81.9053 6.5114 82.7274 7.0458 83.4262 7.71996C84.1251 8.39413 84.68 9.18339 85.0952 10.0919C85.5104 11.0003 85.7159 11.9746 85.7159 13.0187C85.7159 14.0999 85.5063 15.1111 85.0788 16.0483C84.6554 16.9856 84.0799 17.816 83.3481 18.5312C82.6164 19.2465 81.7737 19.8097 80.8241 20.2167C79.8704 20.6236 78.8551 20.8292 77.774 20.8292C76.6928 20.8292 75.7391 20.6647 74.9129 20.3359C74.0866 20.007 73.3878 19.6411 72.8164 19.2383C72.2656 18.8601 71.7887 18.4408 71.3776 17.9804C71.2173 17.8036 71.2214 17.5323 71.39 17.3638L72.2614 16.4923L72.8205 15.9332C73.0014 15.7524 73.2974 15.7565 73.4618 15.9497C73.729 16.2539 74.0208 16.5375 74.3415 16.7965C74.7238 17.0925 75.2047 17.3638 75.7885 17.6063C76.3722 17.8489 77.034 17.9722 77.774 17.9722C78.4111 17.9722 79.0031 17.8571 79.5539 17.631C80.1048 17.4049 80.5857 17.1048 81.0009 16.7348C81.4161 16.3649 81.7532 15.9332 82.0163 15.4317C82.1848 15.1152 82.3163 14.7905 82.415 14.4616C82.4972 14.1821 82.2752 13.8984 81.9834 13.8984H70.8761ZM74.9869 9.09707C74.4196 9.54103 74.0126 10.0672 73.766 10.6715C73.6427 10.9675 73.8564 11.2963 74.1771 11.2963H81.7614C82.082 11.2963 82.3081 10.9633 82.1725 10.6756C81.8847 10.0672 81.4572 9.54103 80.8817 9.09707C80.1171 8.50923 79.1346 8.21326 77.9261 8.21326C76.7175 8.21326 75.7391 8.50512 74.9869 9.09707Z" fill="#0F0C3D"/>
<path d="M88.3512 0.17276H89.8023C90.1929 0.17276 90.5053 0.489288 90.5053 0.875699V3.53536V4.29156C90.5053 4.68208 90.3885 5.53729 91.7447 5.53729H92.9758C93.3664 5.53729 93.6788 5.85382 93.6788 6.24023V7.69133C93.6788 8.08185 93.3623 8.39427 92.9758 8.39427H91.2082C90.8177 8.39427 90.5053 8.71079 90.5053 9.0972V16.0732C90.5053 16.6281 90.6862 17.0803 91.0438 17.4297C91.4055 17.7791 91.8577 17.9559 92.4086 17.9559C92.8114 17.9559 93.1732 17.9065 93.4897 17.8038C93.6582 17.7627 93.8268 17.7133 93.9994 17.6517V17.9929V19.9578C93.9994 20.2949 93.7651 20.5868 93.4363 20.6484C93.4116 20.6525 93.3869 20.6566 93.3664 20.6607C92.9019 20.7676 92.3716 20.8211 91.7755 20.8211C90.3367 20.8211 89.2351 20.4347 88.4705 19.6577C87.7059 18.8808 87.3277 17.7175 87.3277 16.1636V9.10543C87.3277 8.7149 87.0111 8.40249 86.6247 8.40249H85.1736C84.7831 8.40249 84.4707 8.08596 84.4707 7.69955V6.24845C84.4707 5.85793 84.7872 5.54551 85.1736 5.54551H86.0574C86.5425 5.54551 86.933 5.37697 87.2167 5.044C87.5044 4.70692 87.6442 4.20541 87.6442 3.53536V0.87981C87.6483 0.489288 87.9648 0.17276 88.3512 0.17276Z" fill="#0F0C3D"/>
</svg>
