<svg width="45" height="14" viewBox="0 0 45 14" fill="none" xmlns="http://www.w3.org/2000/svg">
<path d="M17.0862 0.246197L11.1957 13.7858H7.351L4.4543 2.98153C4.27597 2.31524 4.12356 2.07277 3.58884 1.78983C2.71292 1.33368 1.27213 0.905795 0 0.63928L0.0890332 0.246281H6.27469C7.06359 0.246281 7.77287 0.75315 7.9512 1.62694L9.48287 9.4634L13.266 0.246281H17.0862V0.246197ZM32.1459 9.36325C32.163 5.79171 27.0155 5.59732 27.0525 3.9995C27.0625 3.51177 27.5424 2.99567 28.5934 2.86538C29.1153 2.79849 30.5515 2.74947 32.1793 3.46935L32.8173 0.599489C31.9415 0.293268 30.8157 0 29.4165 0C25.8227 0 23.2928 1.84131 23.2714 4.47589C23.2479 6.42413 25.0764 7.51135 26.4557 8.1602C27.872 8.82412 28.3455 9.24802 28.3405 9.84345C28.3313 10.7522 27.2105 11.1494 26.1651 11.1672C24.3366 11.1946 23.276 10.6912 22.429 10.3113L21.7707 13.2798C22.6191 13.655 24.1899 13.9808 25.8155 14C29.6351 13.9998 32.1339 12.1782 32.1459 9.36325ZM41.6362 13.7859H45L42.0649 0.246281H38.9596C38.2619 0.246281 37.6736 0.638265 37.4115 1.23877L31.9586 13.7859H35.7753L36.5329 11.7638H41.1983L41.6362 13.7859ZM37.5789 8.9887L39.4937 3.90477L40.5952 8.9887H37.5789ZM22.2825 0.246197L19.274 13.7858H15.6371L18.6463 0.246197H22.2825Z" fill="white"/>
</svg>
