<svg width="51" height="51" viewBox="0 0 51 51" fill="none" xmlns="http://www.w3.org/2000/svg">
<path d="M25.5 51C39.5833 51 51 39.5833 51 25.5C51 11.4167 39.5833 0 25.5 0C11.4167 0 0 11.4167 0 25.5C0 39.5833 11.4167 51 25.5 51Z" fill="#CC1D1D" fill-opacity="0.58"/>
<path d="M28.1531 30.8025H23.2469L21.2844 10.9813H30.1156L28.1531 30.8025Z" fill="white"/>
<path d="M25.7 40.4188C27.7864 40.4188 29.4778 38.7494 29.4778 36.69C29.4778 34.6307 27.7864 32.9613 25.7 32.9613C23.6136 32.9613 21.9222 34.6307 21.9222 36.69C21.9222 38.7494 23.6136 40.4188 25.7 40.4188Z" fill="white"/>
</svg>
