<svg width="17" height="15" viewBox="0 0 17 15" fill="none" xmlns="http://www.w3.org/2000/svg">
<path fill-rule="evenodd" clip-rule="evenodd" d="M12.5836 2.93879C12.6145 2.99274 12.6685 3.03128 12.7379 3.03128C14.5899 3.03128 16.1024 4.54205 16.1024 6.39196V10.9705C16.1024 12.8204 14.5899 14.3312 12.7379 14.3312H4.03369C2.17401 14.3312 0.669281 12.8204 0.669281 10.9705V6.39196C0.669281 4.54205 2.17401 3.03128 4.03369 3.03128C4.09542 3.03128 4.15716 3.00045 4.18031 2.93879L4.2266 2.84629C4.25321 2.79029 4.28052 2.73277 4.30824 2.67438C4.50564 2.25858 4.72403 1.79858 4.85936 1.52823C5.21432 0.834513 5.81621 0.449114 6.56471 0.441406H10.1992C10.9477 0.449114 11.5573 0.834513 11.9123 1.52823C12.0338 1.77104 12.219 2.16215 12.3975 2.53911C12.4343 2.61689 12.4708 2.69407 12.5064 2.76921L12.5836 2.93879ZM12.0203 5.89865C12.0203 6.28405 12.329 6.59237 12.7148 6.59237C13.1006 6.59237 13.417 6.28405 13.417 5.89865C13.417 5.51325 13.1006 5.19723 12.7148 5.19723C12.329 5.19723 12.0203 5.51325 12.0203 5.89865ZM7.05086 7.09339C7.41353 6.73111 7.88424 6.53841 8.38582 6.53841C8.88739 6.53841 9.3581 6.73111 9.71306 7.08568C10.068 7.44024 10.2609 7.91043 10.2609 8.41145C10.2532 9.44432 9.41983 10.2845 8.38582 10.2845C7.88424 10.2845 7.41353 10.0918 7.05857 9.73722C6.70361 9.38265 6.5107 8.91247 6.5107 8.41145V8.40374C6.50298 7.91814 6.6959 7.44795 7.05086 7.09339ZM10.5233 10.5543C9.97542 11.1015 9.2192 11.4407 8.38582 11.4407C7.57558 11.4407 6.81936 11.1247 6.24062 10.5543C5.6696 9.97617 5.35322 9.22079 5.35322 8.41145C5.3455 7.60982 5.66188 6.85444 6.2329 6.27634C6.81164 5.69824 7.57558 5.38222 8.38582 5.38222C9.19605 5.38222 9.95999 5.69824 10.531 6.26863C11.102 6.84673 11.4184 7.60982 11.4184 8.41145C11.4107 9.25162 11.0712 10.007 10.5233 10.5543Z" fill="white"/>
</svg>
