<svg width="28" height="28" viewBox="0 0 28 28" fill="none" xmlns="http://www.w3.org/2000/svg">
<rect width="28" height="28" rx="8" fill="#5903E7"/>
<path d="M11.4077 8C8.42099 8 6 9.80612 6 12.0338C6 13.3089 6.79339 14.4463 8.032 15.186L11.1776 17.6266V16.0655C11.2528 16.0677 11.3303 16.0698 11.4055 16.0698C11.9323 16.0698 12.4419 16.0139 12.9235 15.9086C12.9214 15.8914 12.9193 15.8762 12.9171 15.8591C12.9 15.7193 12.8914 15.5754 12.8914 15.4334C12.8914 14.5045 13.2655 13.6207 13.973 12.8724C14.6482 12.1606 15.575 11.6231 16.6565 11.322C16.68 11.3156 16.7016 11.3092 16.7252 11.3027C16.2629 9.42362 14.0589 8 11.4076 8L11.4077 8ZM11.8291 14.1304H10.8357V13.1543H11.8291V14.1304ZM12.7838 11.1394C12.7581 11.2319 12.7236 11.3157 12.6763 11.3932C12.6289 11.4684 12.5752 11.5395 12.5129 11.6018C12.4484 11.6662 12.3795 11.7243 12.3043 11.778C12.2291 11.8382 12.1559 11.892 12.0893 11.9436C12.0227 11.9952 11.9646 12.0468 11.9173 12.1027C11.87 12.1564 11.8334 12.2188 11.8055 12.2854C11.7775 12.352 11.7646 12.4338 11.7646 12.5263V12.6811H10.898V12.5263C10.898 12.2984 10.9368 12.0984 11.0141 11.9243C11.0914 11.7502 11.2205 11.5996 11.3968 11.4684C11.4612 11.4211 11.5214 11.3759 11.5795 11.3328C11.6396 11.2877 11.6934 11.2425 11.7407 11.1973C11.7902 11.15 11.8289 11.1005 11.8589 11.0489C11.8891 10.9952 11.9041 10.9393 11.9041 10.8748C11.9041 10.7435 11.8504 10.6448 11.745 10.5802C11.6396 10.5157 11.5193 10.4812 11.3837 10.4812C11.287 10.4812 11.1966 10.4941 11.1107 10.52C11.0268 10.5457 10.9494 10.578 10.8785 10.6189C10.8098 10.6598 10.7452 10.7007 10.6893 10.7457C10.6334 10.7909 10.5839 10.8318 10.5473 10.8703L9.9903 10.2812C10.0462 10.2189 10.1171 10.15 10.2053 10.0748C10.2935 10.0017 10.3989 9.93281 10.5192 9.86834C10.6396 9.80602 10.7773 9.75227 10.93 9.70923C11.0848 9.66619 11.2568 9.64691 11.446 9.64691C11.6396 9.64691 11.8223 9.67262 11.99 9.72655C12.1598 9.7803 12.3039 9.85548 12.4264 9.9587C12.5489 10.0598 12.6457 10.1844 12.7144 10.3285C12.7832 10.4748 12.8198 10.6382 12.8198 10.8187C12.8225 10.9394 12.8094 11.0471 12.7837 11.1395L12.7838 11.1394Z" fill="white"/>
<path d="M18.6429 11.397C17.9763 11.397 17.3377 11.4873 16.7486 11.6507C14.6949 12.2227 13.2351 13.6999 13.2351 15.4308C13.2351 15.5598 13.2437 15.6889 13.2587 15.8135C13.5167 17.8605 15.8282 19.4647 18.643 19.4647C18.7203 19.4647 18.7957 19.4625 18.8709 19.4604V20.9999L21.1393 19.2409L21.4575 18.9936L21.907 18.6452C23.2101 17.9076 24.0508 16.7423 24.0508 15.4285C24.0487 13.2033 21.6276 11.397 18.6432 11.397L18.6429 11.397ZM16.3788 15.99C15.9595 15.99 15.6219 15.6503 15.6219 15.2332C15.6219 14.816 15.9616 14.4764 16.3788 14.4764C16.7981 14.4764 17.1356 14.816 17.1356 15.2332C17.1356 15.6501 16.7981 15.99 16.3788 15.99ZM18.6429 15.99C18.2236 15.99 17.8861 15.6503 17.8861 15.2332C17.8861 14.816 18.2257 14.4764 18.6429 14.4764C19.0601 14.4764 19.3997 14.816 19.3997 15.2332C19.3997 15.6501 19.0601 15.99 18.6429 15.99ZM20.9049 15.99C20.4877 15.99 20.1481 15.6503 20.1481 15.2332C20.1481 14.816 20.4877 14.4764 20.9049 14.4764C21.3242 14.4764 21.6617 14.816 21.6617 15.2332C21.6617 15.6501 21.3242 15.99 20.9049 15.99Z" fill="white"/>
</svg>
