<svg width="28" height="28" viewBox="0 0 28 28" fill="none" xmlns="http://www.w3.org/2000/svg">
<rect width="28" height="28" rx="8" fill="#0E824F"/>
<g clip-path="url(#clip0_4293_71884)">
<path d="M15 19C15 19.5523 14.5523 20 14 20C13.4477 20 13 19.5523 13 19C13 18.4477 13.4477 18 14 18C14.5523 18 15 18.4477 15 19Z" fill="white"/>
<path d="M17.5 11.5C17.5 10.5718 17.1312 9.6815 16.4749 9.0251C15.8185 8.3687 14.9283 8 14 8C13.0717 8 12.1815 8.36875 11.5251 9.0251C10.8687 9.68145 10.5 10.5717 10.5 11.5C10.5 11.8573 10.6906 12.1874 11 12.366C11.3094 12.5446 11.6906 12.5446 12 12.366C12.3094 12.1874 12.5 11.8573 12.5 11.5C12.5 11.1022 12.658 10.7206 12.9393 10.4393C13.2206 10.158 13.6022 9.99996 14 9.99996C14.3979 9.99996 14.7794 10.158 15.0607 10.4393C15.3421 10.7206 15.5001 11.1021 15.5001 11.5C15.5001 11.8978 15.342 12.2794 15.0607 12.5607C14.7794 12.842 14.3979 13 14 13C13.7348 13 13.4805 13.1054 13.2929 13.2929C13.1054 13.4805 13 13.7348 13 14V16.25C13 16.6073 13.1906 16.9374 13.5 17.1161C13.8095 17.2947 14.1906 17.2947 14.5 17.1161C14.8095 16.9374 15 16.6073 15 16.25V14.8526C15.7217 14.6367 16.3545 14.1939 16.8048 13.59C17.2551 12.9862 17.4989 12.2532 17.5 11.5V11.5Z" fill="white"/>
</g>
<defs>
<clipPath id="clip0_4293_71884">
<rect width="12" height="12" fill="white" transform="translate(8 8)"/>
</clipPath>
</defs>
</svg>
