<svg width="60" height="40" viewBox="0 0 60 40" fill="none" xmlns="http://www.w3.org/2000/svg">
<g clip-path="url(#clip0_4148_71395)">
<g style="mix-blend-mode:multiply">
<g style="mix-blend-mode:multiply">
<path d="M54 0H6C2.68629 0 0 2.68629 0 6V34C0 37.3137 2.68629 40 6 40H54C57.3137 40 60 37.3137 60 34V6C60 2.68629 57.3137 0 54 0Z" fill="#62E2AA"/>
</g>
</g>
<g style="mix-blend-mode:multiply">
<g style="mix-blend-mode:multiply">
<path d="M8 10V16C8 17.1046 8.89543 18 10 18H16C17.1046 18 18 17.1046 18 16V10C18 8.89543 17.1046 8 16 8H10C8.89543 8 8 8.89543 8 10Z" fill="#2E48DA"/>
</g>
</g>
<g style="mix-blend-mode:multiply">
<g style="mix-blend-mode:multiply">
<path d="M32.5 22H9.5C8.67157 22 8 22.6716 8 23.5C8 24.3284 8.67157 25 9.5 25H32.5C33.3284 25 34 24.3284 34 23.5C34 22.6716 33.3284 22 32.5 22Z" fill="#2E48DA"/>
</g>
</g>
<g style="mix-blend-mode:multiply">
<g style="mix-blend-mode:multiply">
<path d="M32.5 29H9.5C8.67157 29 8 29.6716 8 30.5C8 31.3284 8.67157 32 9.5 32H32.5C33.3284 32 34 31.3284 34 30.5C34 29.6716 33.3284 29 32.5 29Z" fill="#2E48DA"/>
</g>
</g>
</g>
<defs>
<clipPath id="clip0_4148_71395">
<rect width="60" height="40" fill="white"/>
</clipPath>
</defs>
</svg>
