<svg width="56" height="56" viewBox="0 0 56 56" fill="none" xmlns="http://www.w3.org/2000/svg">
<rect width="56" height="56" rx="22" fill="#0AAA64"/>
<path fill-rule="evenodd" clip-rule="evenodd" d="M31.8713 19.3159C29.98 18.8947 28.02 18.8947 26.1287 19.3159L25.733 19.4041C23.0917 19.9924 21.0093 22.0335 20.3571 24.6733C19.881 26.601 19.881 28.6164 20.3571 30.5441C21.0093 33.1839 23.0917 35.225 25.733 35.8133L26.1287 35.9015C28.02 36.3227 29.98 36.3227 31.8713 35.9015L32.2669 35.8133C34.9083 35.225 36.9907 33.1839 37.6429 30.5441C38.119 28.6164 38.119 26.601 37.6429 24.6733C36.9907 22.0335 34.9083 19.9924 32.2669 19.4041L31.8713 19.3159ZM34.6305 25.5118C34.9877 25.4507 35.3492 25.4289 35.708 25.4457C36.1022 25.4642 36.4125 25.7746 36.4655 26.1678C36.5943 27.124 36.5943 28.0934 36.4655 29.0496C36.4125 29.4428 36.1022 29.7532 35.708 29.7717C35.3492 29.7885 34.9877 29.7667 34.6305 29.7056L34.5605 29.6936C33.6302 29.5344 32.9114 28.9007 32.6684 28.1022C32.5701 27.7792 32.5701 27.4381 32.6684 27.1152C32.9114 26.3167 33.6302 25.683 34.5605 25.5238L34.6305 25.5118ZM24.5906 24.7174C24.5906 24.3981 24.8481 24.1392 25.1657 24.1392L29 24.1392C29.3177 24.1392 29.5752 24.3981 29.5752 24.7174C29.5752 25.0368 29.3177 25.2957 29 25.2957H25.1657C24.8481 25.2957 24.5906 25.0368 24.5906 24.7174Z" fill="white"/>
</svg>
