<svg width="28" height="28" viewBox="0 0 28 28" fill="none" xmlns="http://www.w3.org/2000/svg">
<rect width="28" height="28" rx="8" fill="#2E48DA"/>
<path fill-rule="evenodd" clip-rule="evenodd" d="M12.3416 18.1165V16.3276C12.3416 15.8725 12.7126 15.5028 13.1722 15.4998H14.8557C15.3175 15.4998 15.6919 15.8704 15.6919 16.3276V16.3276V18.122C15.6918 18.5084 16.0032 18.8241 16.3934 18.8332H17.5157C18.6346 18.8332 19.5416 17.9352 19.5416 16.8276V16.8276V11.7386C19.5356 11.3028 19.3289 10.8936 18.9804 10.6274L15.1419 7.56626C14.4695 7.03325 13.5135 7.03325 12.8411 7.56626L9.01943 10.633C8.66957 10.8981 8.46256 11.308 8.45825 11.7441V16.8276C8.45825 17.9352 9.36526 18.8332 10.4841 18.8332H11.6065C12.0063 18.8332 12.3304 18.5123 12.3304 18.1165V18.1165" fill="white"/>
</svg>
