<svg width="56" height="56" viewBox="0 0 56 56" fill="none" xmlns="http://www.w3.org/2000/svg">
<rect width="56" height="56" rx="22" fill="#2E48DA"/>
<path d="M36.7972 27.7821C37.0676 27.51 37.0676 27.0687 36.7972 26.7966L31.0664 21.0282C30.48 20.4379 29.991 19.9456 29.5506 19.6074C29.0857 19.2504 28.5946 19 28 19C27.4054 19 26.9143 19.2504 26.4494 19.6074C26.009 19.9456 25.52 20.4379 24.9335 21.0282L19.2028 26.7966C18.9324 27.0687 18.9324 27.51 19.2028 27.7821C19.4731 28.0542 19.9115 28.0542 20.1818 27.7821L20.5785 27.3829V30.4332C20.5785 33.4273 22.6259 36.0276 25.522 36.7114C27.1519 37.0962 28.8481 37.0962 30.478 36.7114C33.374 36.0276 35.4215 33.4273 35.4215 30.4332V27.3829L35.8182 27.7821C36.0885 28.0542 36.5269 28.0542 36.7972 27.7821Z" fill="white"/>
</svg>
