<svg width="56" height="56" viewBox="0 0 56 56" fill="none" xmlns="http://www.w3.org/2000/svg">
<rect width="56" height="56" rx="22" fill="#E73A03"/>
<path d="M24.1912 19.1559C23.3048 18.948 22.3822 18.948 21.4958 19.1559C20.3348 19.4283 19.4283 20.3348 19.1559 21.4958C18.948 22.3822 18.948 23.3048 19.1559 24.1912C19.4283 25.3522 20.3348 26.2587 21.4958 26.531C22.3822 26.739 23.3048 26.739 24.1912 26.531C25.3522 26.2587 26.2587 25.3522 26.531 24.1912C26.739 23.3048 26.739 22.3822 26.531 21.4958C26.2587 20.3348 25.3522 19.4283 24.1912 19.1559Z" fill="white"/>
<path d="M24.1912 29.469C23.3048 29.261 22.3822 29.261 21.4958 29.469C20.3348 29.7413 19.4283 30.6478 19.1559 31.8088C18.948 32.6952 18.948 33.6178 19.1559 34.5042C19.4283 35.6652 20.3348 36.5717 21.4958 36.8441C22.3822 37.052 23.3048 37.052 24.1912 36.8441C25.3522 36.5717 26.2587 35.6652 26.531 34.5042C26.739 33.6178 26.739 32.6952 26.531 31.8088C26.2587 30.6478 25.3522 29.7413 24.1912 29.469Z" fill="white"/>
<path d="M34.5042 19.1559C33.6178 18.948 32.6952 18.948 31.8088 19.1559C30.6478 19.4283 29.7413 20.3348 29.469 21.4958C29.261 22.3822 29.261 23.3048 29.469 24.1912C29.7413 25.3522 30.6478 26.2587 31.8088 26.531C32.6952 26.739 33.6178 26.739 34.5042 26.531C35.6652 26.2587 36.5717 25.3522 36.8441 24.1912C37.052 23.3048 37.052 22.3822 36.8441 21.4958C36.5717 20.3348 35.6652 19.4283 34.5042 19.1559Z" fill="white"/>
<path d="M34.5042 29.469C33.6178 29.261 32.6952 29.261 31.8088 29.469C30.6478 29.7413 29.7413 30.6478 29.469 31.8088C29.261 32.6952 29.261 33.6178 29.469 34.5042C29.7413 35.6652 30.6478 36.5717 31.8088 36.8441C32.6952 37.052 33.6178 37.052 34.5042 36.8441C35.6652 36.5717 36.5717 35.6652 36.8441 34.5042C37.052 33.6178 37.052 32.6952 36.8441 31.8088C36.5717 30.6478 35.6652 29.7413 34.5042 29.469Z" fill="white"/>
</svg>
