<svg width="56" height="56" viewBox="0 0 56 56" fill="none" xmlns="http://www.w3.org/2000/svg">
<rect width="56" height="56" rx="22" fill="#442AAC"/>
<path fill-rule="evenodd" clip-rule="evenodd" d="M32.2361 32.9044C31.8432 32.9966 31.4462 33.0651 31.0471 33.1098C30.5174 34.9281 29.0477 36.3311 27.1898 36.7669C25.8651 37.0777 24.4864 37.0777 23.1617 36.7669C21.2123 36.3097 19.6903 34.7877 19.2331 32.8383C18.9223 31.5136 18.9223 30.1349 19.2331 28.8102C19.6689 26.9523 21.0719 25.4826 22.8902 24.9529C22.9349 24.5538 23.0034 24.1568 23.0956 23.7639C23.6188 21.5335 25.3603 19.792 27.5907 19.2688C29.1184 18.9104 30.7084 18.9104 32.2361 19.2688C34.4665 19.792 36.208 21.5335 36.7312 23.7639C37.0896 25.2916 37.0896 26.8816 36.7312 28.4093C36.208 30.6397 34.4665 32.3812 32.2361 32.9044ZM27.5907 32.9044C28.2257 33.0534 28.8715 33.1404 29.5191 33.1655C29.0404 34.2705 28.0633 35.1022 26.8653 35.3832C25.754 35.6439 24.5975 35.6439 23.4862 35.3832C22.0625 35.0492 20.9508 33.9375 20.6168 32.5138C20.3561 31.4025 20.3561 30.246 20.6168 29.1347C20.8978 27.9367 21.7295 26.9596 22.8345 26.4809C22.8558 27.0311 22.9218 27.5801 23.0326 28.1222C23.0522 28.2181 23.0732 28.3138 23.0956 28.4093C23.6188 30.6397 25.3603 32.3812 27.5907 32.9044Z" fill="white"/>
</svg>
