<svg width="56" height="56" viewBox="0 0 56 56" fill="none" xmlns="http://www.w3.org/2000/svg">
<rect width="56" height="56" rx="22" fill="#47BB34"/>
<path fill-rule="evenodd" clip-rule="evenodd" d="M33.1359 19.1969C29.8961 17.601 26.1039 17.601 22.8641 19.1969C20.7851 20.221 19.3762 22.2501 19.1391 24.5676L19.102 24.9298C18.9773 26.1492 18.9669 27.3777 19.071 28.5991L19.1058 29.0072C19.1628 29.6759 19.1957 30.0617 19.2597 30.4304C19.6072 32.4324 20.6511 34.2446 22.2042 35.5443C22.4902 35.7836 22.8065 36.0044 23.3553 36.3875L23.6375 36.5846C24.3681 37.0947 24.8099 37.4032 25.2614 37.6217C26.992 38.4594 29.008 38.4594 30.7386 37.6217C31.1901 37.4032 31.6319 37.0947 32.3625 36.5845L32.6446 36.3876C33.1935 36.0044 33.5098 35.7836 33.7958 35.5443C35.3489 34.2446 36.3928 32.4324 36.7403 30.4304C36.8043 30.0617 36.8372 29.676 36.8942 29.0073L36.929 28.5991C37.0331 27.3777 37.0227 26.1492 36.898 24.9298L36.8609 24.5676C36.6238 22.2501 35.2149 20.221 33.1359 19.1969ZM31.3418 25.493C31.6454 25.7791 31.6619 26.2596 31.3784 26.5662L27.7784 30.4605C27.6392 30.611 27.4455 30.698 27.2415 30.7016C27.0376 30.7051 26.841 30.6249 26.6967 30.4793L24.6396 28.4024C24.3458 28.1058 24.3458 27.625 24.6396 27.3285C24.9333 27.0319 25.4095 27.0319 25.7033 27.3285L27.2099 28.8496L30.2787 25.53C30.5621 25.2234 31.0381 25.2068 31.3418 25.493Z" fill="white"/>
</svg>
